<svg xmlns="http://www.w3.org/2000/svg" viewBox="0 0 524 349.33"><defs><style>.cfff89f8-e927-45fc-adec-d2712eb61bd0{fill:none;stroke:#555c64;stroke-miterlimit:10;stroke-width:4px;}</style></defs><g id="df63445e-8754-4fee-b170-153699e0f9d8"><g id="dc7b29d9-973f-4837-928b-ba72a72c3b96"><rect width="174.67" height="87.33" x="391" y="216.33" class="cfff89f8-e927-45fc-adec-d2712eb61bd0" transform="rotate(90 478.33 260)"/><rect width="174.67" height="87.33" x="303.67" y="216.33" class="cfff89f8-e927-45fc-adec-d2712eb61bd0" transform="rotate(90 391 260)"/><rect width="174.67" height="87.33" x="172.67" y="172.67" class="cfff89f8-e927-45fc-adec-d2712eb61bd0"/><rect width="174.67" height="87.33" x="172.67" y="260" class="cfff89f8-e927-45fc-adec-d2712eb61bd0"/><rect width="174.67" height="87.33" x="41.67" y="216.33" class="cfff89f8-e927-45fc-adec-d2712eb61bd0" transform="rotate(90 129 260)"/><polyline points="0 172.67 85.33 172.67 85.33 347.33 0 347.33" class="cfff89f8-e927-45fc-adec-d2712eb61bd0"/><polyline points="172.67 0 172.67 85.33 0 85.33" class="cfff89f8-e927-45fc-adec-d2712eb61bd0"/><polyline points="0 85.33 172.67 85.33 172.67 172.67 0 172.67" class="cfff89f8-e927-45fc-adec-d2712eb61bd0"/><polyline points="347.33 0 347.33 172.67 260 172.67 260 0" class="cfff89f8-e927-45fc-adec-d2712eb61bd0"/><polyline points="260 0 260 172.67 172.67 172.67 172.67 0" class="cfff89f8-e927-45fc-adec-d2712eb61bd0"/><polyline points="522 0 522 85.33 347.33 85.33 347.33 0" class="cfff89f8-e927-45fc-adec-d2712eb61bd0"/><rect width="174.67" height="87.33" x="347.33" y="85.33" class="cfff89f8-e927-45fc-adec-d2712eb61bd0"/></g></g></svg>