<svg xmlns="http://www.w3.org/2000/svg" viewBox="0 0 81.47 44.54"><defs><style>.cls-1{fill:#00637b;}.cls-2{fill:#e20613;}.cls-3{fill:#fff;}</style></defs><title>Ресурс 1</title><g id="Слой_2" data-name="Слой 2"><g id="Слой_1-2" data-name="Слой 1"><path class="cls-1" d="M0,36.5a1.58,1.58,0,0,1,.4-1.25,1.65,1.65,0,0,1,1.17-.38H6.2a2.25,2.25,0,0,1,2.09.87,3.5,3.5,0,0,1,.48,2.11A4.31,4.31,0,0,1,8.36,40a1.89,1.89,0,0,1-1.84,1H5.26v.07L9,44.43H6.66l-3.21-3.1a1.43,1.43,0,0,1-.46-.8v-.22c0-.39.3-.66.82-.66H5.65a1.12,1.12,0,0,0,1-.42,3.12,3.12,0,0,0,.22-1.31,1.84,1.84,0,0,0-.35-1.33,1.42,1.42,0,0,0-1-.29h-3a.64.64,0,0,0-.49.16.59.59,0,0,0-.19.53v7.44H0Z"/><path class="cls-1" d="M12.54,44.43a2.54,2.54,0,0,1-2.26-.91,4.7,4.7,0,0,1-.53-2.64c0-1.35.07-2.35.88-3a4.3,4.3,0,0,1,2.76-.69,4.71,4.71,0,0,1,2.44.47,2.51,2.51,0,0,1,1,2.35,1.44,1.44,0,0,1-.35,1.09,1.06,1.06,0,0,1-.79.28H11.44a4.8,4.8,0,0,0,.1,1c.21.78.89.86,1.49.86h3.6v1.23Zm2.28-4.31c.32,0,.36-.24.36-.43a1.21,1.21,0,0,0-.47-1,2.28,2.28,0,0,0-1.39-.33,2,2,0,0,0-1.55.48,1.71,1.71,0,0,0-.33,1.25Z"/><path class="cls-1" d="M24.46,34.87v8.29a1.67,1.67,0,0,1-.22.9,1.16,1.16,0,0,1-1,.37H20.31A2.35,2.35,0,0,1,18,43a5.85,5.85,0,0,1-.36-2.3,4.26,4.26,0,0,1,.57-2.43,2.87,2.87,0,0,1,2.48-1.08h2.18V34.87ZM21,38.42a1.5,1.5,0,0,0-1.37.64,3.08,3.08,0,0,0-.32,1.7,3.93,3.93,0,0,0,.2,1.62A1.48,1.48,0,0,0,21,43.2h1.31a.69.69,0,0,0,.43-.11c.12-.11.12-.39.12-.5V38.42Z"/><path class="cls-2" d="M43.47,27.17S65.81,26,80.28,13.49l.88-1.05L71.82,31.89l-36.48-.14Z"/><path class="cls-1" d="M41.25,17.72s33-12.52,40-7.66c0,0,3,2.68-13,10.88,0,0-11.3,5.58-28.2,6.59,0,0-11.75.58-14.43,0C25.62,27.54,34.07,20.58,41.25,17.72Z"/><path class="cls-3" d="M44.17,27.05S70.29,15.74,79,6L77,10.9s-.11,1-6.36,5C65.41,19.32,54.48,24,44.17,27.05Z"/><path class="cls-3" d="M44.52,23.9A139.65,139.65,0,0,0,59.6,15.17C65.92,10.77,68.12,10,68.48,8c0,0,2-5.49,2.31-6.27,0,0-8.93,11.46-17.65,16.89C47.14,22.35,44.52,23.9,44.52,23.9Z"/><path class="cls-2" d="M78.33,4.61a35.36,35.36,0,0,0-10.2,2c.54-.69,1.05-1.41,1.53-2.15a11.6,11.6,0,0,0,1.19-2.3A3,3,0,0,0,71,1.41a1.38,1.38,0,0,0-.17-.94,1,1,0,0,0-.49-.39A1.17,1.17,0,0,0,69.81,0h-.06l-.08,0-.08,0-.15,0-.31.09a35,35,0,0,0-4.82,1.73c-1.55.68-3.08,1.41-4.56,2.21s-3,1.59-4.39,2.41c-2.88,1.65-5.68,3.33-8.37,5s-5.27,3.3-7.64,5c-1.89,1.32-3.66,2.64-5.32,3.9L2,32.14l17.85.08a40.79,40.79,0,0,1,4.27-3.84l-.75.65C21.19,31,20,32.13,20,32.13l.09.1,3.69-2.77L28,26.28,33.5,22.2l2.22-1.64c1.84-1.07,3.18-1.77,4-2.19a3.68,3.68,0,0,0,1.11-.16,252.15,252.15,0,0,1,24-9.77c-.81.85-1.64,1.67-2.48,2.46a76.18,76.18,0,0,1-6.9,5.7c-2.3,1.7-4.57,3.17-6.72,4.46s-4.2,2.33-6,3.23c-.92.44-1.77.87-2.59,1.23l-2.23,1c-1.34.6-2.45,1-3.17,1.26l-.06,0-1.27.32L35.08,32l16.86-9.1a106.53,106.53,0,0,0,15.92-8c3.68-2.24,7.7-4.45,10.7-7.55C79.42,6.39,80.34,4.59,78.33,4.61ZM56.51,11c-5.64,2.19-11.24,4.52-16.76,7-.47.21-.46.31-.25.35l-1.5.56,2-1.5c2.33-1.69,4.76-3.52,7.34-5.31a96,96,0,0,1,8.18-5.21C57,6.09,58.48,5.3,60,4.57s3.06-1.38,4.61-2a34.47,34.47,0,0,1,4.78-1.44L69.91,1S70,1,70,1s0,0,0,0a.43.43,0,0,1,0,.25,2.54,2.54,0,0,1-.14.48,11,11,0,0,1-1.16,2,33.86,33.86,0,0,1-2.83,3.57C62.58,8.53,59.42,9.89,56.51,11ZM76.39,7.86c-2.77,2.86-6.64,4.86-10,6.94A91.28,91.28,0,0,1,41.56,25.69l1.51-.62a64.41,64.41,0,0,0,6.25-3c1.12-.6,2.26-1.28,3.44-2s2.35-1.5,3.52-2.36a58.55,58.55,0,0,0,7.06-5.84,56.12,56.12,0,0,0,3.9-4.2c1.84-.56,3.68-1.07,5.54-1.51C75.39,5.54,79.53,4.63,76.39,7.86Z"/><path class="cls-1" d="M28.79,44.43v-8a1.14,1.14,0,0,1,.37-.89,1.55,1.55,0,0,1,1.09-.33h6.58v1.39H31.17a.41.41,0,0,0-.36.11.44.44,0,0,0-.12.37v2h4.48v1.39H30.69v4Z"/><path class="cls-1" d="M46.4,36.05c1.05.93,1.15,2.54,1.15,3.76s-.12,2.83-1.15,3.75-2.86,1-4,1-2.92,0-4-1-1.17-2.71-1.17-3.75c0-1.26.08-2.8,1.17-3.76s2.8-1,4-1S45.28,35.08,46.4,36.05Zm-6.64,6.33a3.17,3.17,0,0,0,2.59.77A3.27,3.27,0,0,0,45,42.38a3.81,3.81,0,0,0,.62-2.57A3.71,3.71,0,0,0,45,37.22a3.33,3.33,0,0,0-2.62-.76,3.24,3.24,0,0,0-2.59.76,3.81,3.81,0,0,0-.62,2.59A3.74,3.74,0,0,0,39.76,42.38Z"/><path class="cls-1" d="M49,36.75a1.44,1.44,0,0,1,.42-1.2,1.83,1.83,0,0,1,1.21-.37h4.8a2.4,2.4,0,0,1,2.16.85,3.15,3.15,0,0,1,.5,2,3.87,3.87,0,0,1-.43,2.09,2,2,0,0,1-1.9,1h-1.3v.07l3.84,3.26h-2.4l-3.32-3a1.33,1.33,0,0,1-.48-.78v-.21c0-.37.31-.63.86-.63h1.9a1.19,1.19,0,0,0,1-.41,2.78,2.78,0,0,0,.23-1.27,1.68,1.68,0,0,0-.36-1.28,1.54,1.54,0,0,0-1.07-.28H51.6a.65.65,0,0,0-.5.15.54.54,0,0,0-.2.51v7.2H49Z"/><path class="cls-1" d="M67.32,43.43c-.29.7-.55,1.11-1.44,1.11s-1.2-.53-1.45-1.11l-2.58-6.17c0-.11-.16-.31-.25-.31s-.16.24-.16.28l.05,7.2H59.58V36.29c0-1.2,1.34-1.21,1.63-1.21A1.64,1.64,0,0,1,63,36.27l2.61,6.17c.09.2.19.34.28.34s.18-.14.27-.34l2.61-6.17a1.66,1.66,0,0,1,1.78-1.19c.94,0,1.63.37,1.63,1.21v8.14H70.26l.06-7.2c0-.25-.11-.28-.17-.28s-.2.2-.25.31Z"/></g></g></svg>