<svg xmlns="http://www.w3.org/2000/svg" viewBox="0 0 41 41.31"><defs><style>.cls-1{fill:#fff;}</style></defs><title>Ресурс 1</title><g id="Слой_2" data-name="Слой 2"><g id="Слой_1-2" data-name="Слой 1"><rect class="cls-1" x="0.95" y="7.89" width="1.97" height="1.13"/><rect class="cls-1" x="0.95" y="11.43" width="3.22" height="1.13"/><rect class="cls-1" x="0.95" y="18.5" width="3.22" height="1.13"/><rect class="cls-1" x="0.95" y="25.56" width="3.22" height="1.13"/><rect class="cls-1" x="0.95" y="32.63" width="3.22" height="1.13"/><rect class="cls-1" x="0.95" y="14.96" width="1.97" height="1.13"/><rect class="cls-1" x="0.95" y="22.03" width="1.97" height="1.13"/><rect class="cls-1" x="0.95" y="29.1" width="1.97" height="1.13"/><rect class="cls-1" x="0.95" y="36.17" width="1.97" height="1.13"/><rect class="cls-1" x="3.99" y="38.43" width="1.13" height="1.97"/><rect class="cls-1" x="7.52" y="37.19" width="1.13" height="3.22"/><rect class="cls-1" x="14.59" y="37.19" width="1.13" height="3.22"/><rect class="cls-1" x="21.66" y="37.19" width="1.13" height="3.22"/><rect class="cls-1" x="28.73" y="37.19" width="1.13" height="3.22"/><rect class="cls-1" x="11.06" y="38.43" width="1.13" height="1.97"/><rect class="cls-1" x="18.13" y="38.43" width="1.13" height="1.97"/><rect class="cls-1" x="25.19" y="38.43" width="1.13" height="1.97"/><rect class="cls-1" x="32.26" y="38.43" width="1.13" height="1.97"/><path class="cls-1" d="M6.12,15.11V35.26h20l-5-5c-.19.47-.34.86-.45,1.16l2.69,2.72H7.25V17.86L18.72,29.43a8.87,8.87,0,0,1,.3-1.24l0-.06Z"/><path class="cls-1" d="M23.64,23.82,23.19,25l15.09,15.2H1.13V2.75l20,20.16.46-1.15L0,0V41.31H41Z"/><path class="cls-1" d="M22.34,27.3l-.45,1.16,7.36,7.36a.57.57,0,0,0,.8-.8Z"/><path class="cls-1" d="M20.26,25.23l-14-14a.57.57,0,0,0-.8,0,.56.56,0,0,0,0,.81L19.8,26.37Z"/><path class="cls-1" d="M29.21,6.59A1.38,1.38,0,1,0,30.59,8,1.37,1.37,0,0,0,29.21,6.59Z"/><path class="cls-1" d="M39.68,31.74a4.37,4.37,0,0,0,.58-1.84,5.91,5.91,0,0,0-.56-2.79L32.6,9.26a3.7,3.7,0,0,0,.22-1.2,3.59,3.59,0,0,0-2.41-3.38V2A1.2,1.2,0,1,0,28,2V4.68a3.59,3.59,0,0,0-2.41,3.38,3.35,3.35,0,0,0,.21,1.15l-.34,1.17L18.61,27.49a10.8,10.8,0,0,0-.45,3.2A2.31,2.31,0,0,0,19,32.34l-.58,3.34s0,0,0,.06h.81l.51-3,.15,0a1.3,1.3,0,0,0,1-.76c2.84-7.39,7.17-18.39,8.17-20.36l.14,0c.13,0,.25,0,.38,0,5.14,13.61,8,20.67,8.38,21a.83.83,0,0,0,.49.17l.51,3h.8a.66.66,0,0,0,0-.14l-.54-3.18A2.81,2.81,0,0,0,39.68,31.74ZM20,31.61c0,.08-.12.17-.12.19a1.3,1.3,0,0,1-.76-1.19,10.61,10.61,0,0,1,.39-2.8h0L26.39,10.7l.09-.29a.18.18,0,0,0,.07.05,3.6,3.6,0,0,0,1.57,1C27.25,13.18,25.26,18,20,31.61Zm9.2-21.08a2.47,2.47,0,1,1,2.47-2.47A2.48,2.48,0,0,1,29.21,10.53Zm1.33.88A3.56,3.56,0,0,0,32,10.34l6.84,17.17a5,5,0,0,1,.47,2.28,3.28,3.28,0,0,1-.42,1.41l-.06.11a2,2,0,0,1-.28.43C37.72,30.17,33.47,19.13,30.54,11.41Z"/></g></g></svg>