<svg xmlns="http://www.w3.org/2000/svg" viewBox="0 0 83.69 95.76"><title>Asset 1</title><g id="Layer_2" data-name="Layer 2"><g id="Layer_1-2" data-name="Layer 1"><path d="M78.53,27.51H34.66a5.17,5.17,0,0,1-5.17-5.17V15.87a5.17,5.17,0,0,1,5.17-5.17H78.53a5.17,5.17,0,0,1,5.17,5.17v6.46A5.17,5.17,0,0,1,78.53,27.51ZM34.66,13a2.86,2.86,0,0,0-2.86,2.86v6.46a2.86,2.86,0,0,0,2.86,2.86H78.53a2.86,2.86,0,0,0,2.86-2.86V15.87A2.86,2.86,0,0,0,78.53,13Z" style="fill:#d0495a"/><path d="M72.37,95.69H40.82a6.15,6.15,0,0,1-6.15-6.15V26.75a1.55,1.55,0,0,1,1.55-1.55H77a1.55,1.55,0,0,1,1.55,1.55v62.8A6.15,6.15,0,0,1,72.37,95.69ZM37,27.51v62a3.84,3.84,0,0,0,3.84,3.84H72.37a3.84,3.84,0,0,0,3.84-3.84v-62Z" style="fill:#d0495a"/><path d="M55.88,11.89H68.29a.17.17,0,0,1,.17.17V94.21a0,0,0,0,1,0,0H55.71a0,0,0,0,1,0,0V12.06A.17.17,0,0,1,55.88,11.89Z" style="fill:#d0495a"/><path d="M69.13,13.06h-3.6A4.58,4.58,0,0,1,61,8.25l0-.75A7.9,7.9,0,0,1,68.9,0h.24a6.53,6.53,0,1,1,0,13.06ZM68.9,2.31a5.59,5.59,0,0,0-5.59,5.31l0,.75a2.27,2.27,0,0,0,2.27,2.38h3.6a4.22,4.22,0,1,0,0-8.45Z" style="fill:#d0495a"/><path d="M58,13.06h-3.2A6.53,6.53,0,1,1,54.83,0h.24A7.9,7.9,0,0,1,63,7.5l0,.36A5,5,0,0,1,58,13.06ZM54.83,2.31a4.22,4.22,0,1,0,0,8.45H58A2.64,2.64,0,0,0,60.67,8l0-.36a5.59,5.59,0,0,0-5.59-5.31Z" style="fill:#d0495a"/><path d="M36.18,30.21H76.78a.4.4,0,0,0,.4-.4V26.75a.4.4,0,0,0-.4-.4H36.07a.4.4,0,0,0-.4.41l.11,3.06A.4.4,0,0,0,36.18,30.21Z" style="fill:#d0495a"/><rect x="1.15" y="47.02" width="62.88" height="14.49" rx="1.57" ry="1.57" style="fill:#fff"/><path d="M6.33,61.51H58.86a0,0,0,0,1,0,0V92.45a2.17,2.17,0,0,1-2.17,2.17H8.49a2.17,2.17,0,0,1-2.17-2.17V61.51A0,0,0,0,1,6.33,61.51Z" style="fill:#fff"/><rect x="26.21" y="47.04" width="12.75" height="47.57" style="fill:#fff"/><path d="M40,36.31H39a6.35,6.35,0,0,0-6.34,6l-.08,1.54a3,3,0,0,0,3,3.18H40a5,5,0,0,0,5-5v-.8A5,5,0,0,0,40,36.31Z" style="fill:#fff"/><path d="M20,41.28v.8a5,5,0,0,0,5,5h4a3.4,3.4,0,0,0,3.39-3.57l-.06-1.15a6.35,6.35,0,0,0-6.34-6h-1A5,5,0,0,0,20,41.28Z" style="fill:#fff"/><polygon points="6.29 65.37 58.67 65.37 58.67 61.51 6.16 61.51 6.29 65.37" style="fill:#fff"/><path d="M60.42,62.66H4.77A4.77,4.77,0,0,1,0,57.89V50.63a4.77,4.77,0,0,1,4.77-4.77H60.42a4.77,4.77,0,0,1,4.77,4.77v7.26A4.77,4.77,0,0,1,60.42,62.66ZM4.77,48.17a2.46,2.46,0,0,0-2.46,2.46v7.26a2.47,2.47,0,0,0,2.46,2.46H60.42a2.47,2.47,0,0,0,2.46-2.46V50.63a2.46,2.46,0,0,0-2.46-2.46Z" style="fill:#d0495a"/><path d="M53.86,95.76H11.32a6.15,6.15,0,0,1-6.15-6.15V61.51a1.15,1.15,0,0,1,1.15-1.15H58.86A1.15,1.15,0,0,1,60,61.51V89.62A6.15,6.15,0,0,1,53.86,95.76ZM7.48,62.66v27a3.84,3.84,0,0,0,3.84,3.84H53.86a3.84,3.84,0,0,0,3.84-3.84v-27Z" style="fill:#d0495a"/><path d="M39,95.76H26.21a1.15,1.15,0,0,1-1.15-1.15V47a1.15,1.15,0,0,1,1.15-1.15H39A1.15,1.15,0,0,1,40.12,47V94.61A1.15,1.15,0,0,1,39,95.76Zm-11.6-2.31H37.82V48.19H27.37Z" style="fill:#d0495a"/><path d="M40,48.21H35.62a4.18,4.18,0,0,1-4.17-4.39l.08-1.54A7.5,7.5,0,0,1,39,35.15h1a6.14,6.14,0,0,1,6.13,6.13v.79A6.14,6.14,0,0,1,40,48.21ZM39,37.46a5.19,5.19,0,0,0-5.19,4.93l-.08,1.54a1.87,1.87,0,0,0,1.87,2H40a3.83,3.83,0,0,0,3.82-3.83v-.79A3.83,3.83,0,0,0,40,37.46Z" style="fill:#d0495a"/><path d="M29,48.21h-4a6.14,6.14,0,0,1-6.13-6.13v-.79a6.14,6.14,0,0,1,6.13-6.13h1a7.5,7.5,0,0,1,7.49,7.12l.06,1.15A4.56,4.56,0,0,1,29,48.21Zm-4-10.75a3.83,3.83,0,0,0-3.83,3.83v.79a3.83,3.83,0,0,0,3.83,3.83h4a2.25,2.25,0,0,0,2.24-2.36l-.06-1.15a5.19,5.19,0,0,0-5.19-4.93Z" style="fill:#d0495a"/><polygon points="6.29 65.37 58.67 65.37 58.67 61.51 6.16 61.51 6.29 65.37" style="fill:#d0495a"/></g></g></svg>