<svg xmlns="http://www.w3.org/2000/svg" viewBox="0 0 51.89 45.1"><title>Asset 6</title><g id="Layer_2" data-name="Layer 2"><g id="Layer_1-2" data-name="Layer 1"><path d="M8.18,45.1A15.79,15.79,0,0,1,.6,42.89a1.15,1.15,0,1,1,1.11-2c3.53,1.95,6.59,2.41,9.36,1.43C17.57,40,21.58,30,25.45,20.29c2.08-5.2,4-10.11,6.38-13.85S36.64.7,39.46.15c3.28-.64,6.27.95,8.71,2.59a1.15,1.15,0,0,1,2.09-.84,2.31,2.31,0,0,1,.2.37,18.33,18.33,0,0,1,.77,1.87c.14.39.29.79.47,1.2a1.13,1.13,0,0,1,.11.23A1.15,1.15,0,0,1,51,7.14c-4.13.8-4.44.42-4.75,0A1.15,1.15,0,0,1,47,5.32h.25l.47,0c-2.31-1.64-5.07-3.39-7.84-2.83-2.13.42-4.19,2.19-6.12,5.26-2.23,3.56-4.16,8.37-6.2,13.48C23.53,31.3,19.33,41.8,11.84,44.47A10.81,10.81,0,0,1,8.18,45.1Z" style="fill:#d0495a"/></g></g></svg>