<svg xmlns="http://www.w3.org/2000/svg" viewBox="0 0 114.58 93.83"><title>Asset 4</title><g id="Layer_2" data-name="Layer 2"><g id="Layer_1-2" data-name="Layer 1"><circle cx="28.69" cy="32.08" r="0.74" style="fill:#d0495a"/><path d="M51.11,51.82a8.85,8.85,0,0,1-8.84-9.23l1.18-27.44c-5.69,2-6.31,9.28-6.32,9.36A1.15,1.15,0,0,1,36,25.57H2.31v7.91a7.58,7.58,0,0,0,7.57,7.57H22.49a1.9,1.9,0,0,0,1.9-1.9v-.54a1.15,1.15,0,1,1,2.31,0v.54a4.21,4.21,0,0,1-4.2,4.2H9.88A9.89,9.89,0,0,1,0,33.48V24.42a1.15,1.15,0,0,1,1.15-1.15H35c.61-3.74,3.15-9.65,9.51-10.75a1.12,1.12,0,0,1,1,.27,1.16,1.16,0,0,1,.39.92l-1.24,29a6.54,6.54,0,0,0,6.54,6.83h0l25.16-.18a5.86,5.86,0,0,0,3.49-1.17c3.52-2.69,9.58-8.55,10.51-17.68.89-8.75-3.17-18.37-12.06-28.58A1.15,1.15,0,0,1,79.08,0c.61,0,14.77-.36,23.39,8.93,5,5.43,7.06,13,6,22.44a1.15,1.15,0,1,1-2.29-.25c.95-8.76-.88-15.7-5.43-20.61C95,4.22,86,2.74,81.68,2.4c8.15,10,11.82,19.5,10.92,28.32-1,10-7.58,16.37-11.4,19.28a8.16,8.16,0,0,1-4.87,1.64l-25.16.18Z" style="fill:#d0495a"/><path d="M4,21.27c-3.57,0-3.38,2.8-3.38,2.8l0,5c0,1.74.83,3.18,3.59,3S8,29.28,8,26.48,7.61,21.27,4,21.27Z" style="fill:#d0495a"/><path d="M95.93,93.83H80.46a1.15,1.15,0,0,1-1.15-1.15v-1a4.86,4.86,0,0,1,3.17-4.55l-3.15-6.68H44.23V92.68a1.15,1.15,0,0,1-1.15,1.15H32.22a1.15,1.15,0,0,1-1.15-1.15v-1A4.86,4.86,0,0,1,35,86.94V80.48H29.83V92.68a1.15,1.15,0,0,1-1.15,1.15H16.1a1.15,1.15,0,0,1-1.15-1.15v-1a4.86,4.86,0,0,1,4.85-4.85h.41V49h-.27C12.3,49,9.58,43.32,9.46,43.06a1.15,1.15,0,0,1,2.09-1c.1.2,2.56,5.19,9.71,4.51a1.21,1.21,0,0,1,.88.3,1.15,1.15,0,0,1,.38.85V88a1.15,1.15,0,0,1-1.15,1.15H19.8a2.55,2.55,0,0,0-2.54,2.37H27.53V79.32a1.15,1.15,0,0,1,1.15-1.15h7.46a1.15,1.15,0,0,1,1.15,1.15V88a1.15,1.15,0,0,1-1.15,1.15,2.62,2.62,0,0,0-2.77,2.37h8.54V79.32a1.15,1.15,0,0,1,1.15-1.15h37a1.15,1.15,0,0,1,1,.66l4.09,8.68a1.15,1.15,0,0,1-1,1.64,2.55,2.55,0,0,0-2.54,2.37H94.37l-10-32.59a1.15,1.15,0,0,1,1-1.49C105,56.33,112.58,42.9,112.26,36c-.28-6.19-4.42-6.54-4.59-6.55a1.16,1.16,0,0,1-1.08-1.22,1.15,1.15,0,0,1,1.2-1.09c.07,0,6.39.4,6.77,8.75.34,7.55-7.42,22-27.53,23.79l10,32.7a1.15,1.15,0,0,1-1.1,1.49Z" style="fill:#d0495a"/><path d="M67.68,93.83H56.83a1.15,1.15,0,0,1-1.15-1.15v-1a4.86,4.86,0,0,1,3.92-4.76V79.32a1.15,1.15,0,0,1,2.31,0V88a1.15,1.15,0,0,1-1.15,1.15A2.62,2.62,0,0,0,58,91.53h8.54V79.32a1.15,1.15,0,0,1,2.31,0V92.68A1.15,1.15,0,0,1,67.68,93.83Z" style="fill:#d0495a"/><path d="M80.07,80.48l-.19,0c-5.41-.89-9.5-3.24-12.15-7-4.54-6.4-3.17-14.51-3.11-14.86a1.15,1.15,0,0,1,2.27.4c0,.07-1.25,7.53,2.74,13.14,2.28,3.21,5.86,5.23,10.63,6a1.15,1.15,0,0,1-.18,2.29Z" style="fill:#d0495a"/><path d="M29.43,25.43a1.15,1.15,0,0,1-1.15-1.09c-.56-10.83,9.92-12.45,10-12.47a1.18,1.18,0,0,1,.92.27,1.15,1.15,0,0,1,.4.87v4.57a1.15,1.15,0,0,1-2.31,0V14.47a9.12,9.12,0,0,0-6.73,9.75,1.15,1.15,0,0,1-1.09,1.21Z" style="fill:#d0495a"/><polygon points="67.72 79.95 60.49 85.01 60.83 79.95 61.85 79.27 67.04 79.2 67.72 79.95" style="fill:#d0495a"/></g></g></svg>