<svg xmlns="http://www.w3.org/2000/svg" viewBox="0 0 59.01 97.45"><title>Asset 2</title><g id="Layer_2" data-name="Layer 2"><g id="Layer_1-2" data-name="Layer 1"><path d="M53.12,68.72V22.94l1.36.93a2.67,2.67,0,0,0,3.71-.7l.35-.52a2.67,2.67,0,0,0-.7-3.71S32.91,2,31.06.63a2.59,2.59,0,0,0-3.38,0L14.28,9.88V6.74h0a1.61,1.61,0,0,0-1.61-1.61H9.44A2.67,2.67,0,0,0,6.78,7.8v5.73a2.67,2.67,0,0,1-1.16,2.2l-4.45,3a2.67,2.67,0,0,0-.7,3.71L.82,23a2.67,2.67,0,0,0,3.71.7l.64-.44V51.39A16.45,16.45,0,0,0,21.62,67.83h6.3a16.45,16.45,0,0,1,10.44,3.74l2.52,2.07.75-.86a12.4,12.4,0,0,1,11.48-4.07ZM5.17,23.27" style="fill:#d0495a"/><path d="M34.82,49.38a5.91,5.91,0,0,1-3.07,2,.85.85,0,0,0-.74,1c0,.54,0,1.09,0,1.63a.67.67,0,0,1-.73.75H28.53a.71.71,0,0,1-.76-.8c0-.39,0-.8,0-1.19,0-.87,0-.91-.88-1a11,11,0,0,1-3.13-.89c-.78-.38-.86-.57-.63-1.38.17-.61.33-1.21.52-1.81.14-.44.26-.63.5-.63a1.24,1.24,0,0,1,.55.19,10.1,10.1,0,0,0,3.46,1,5.41,5.41,0,0,0,.62,0,4.2,4.2,0,0,0,1.66-.33,1.77,1.77,0,0,0,.42-3.1A5.67,5.67,0,0,0,29.55,44,32.48,32.48,0,0,1,26,42.43a5,5,0,0,1-2.84-4.8A5.27,5.27,0,0,1,27,32.74c.94-.35,1-.33,1-1.32v-1c0-.74.14-.87.88-.89h.86c1.41,0,1.41.06,1.42,1.58,0,1.12,0,1.12,1.12,1.3a9.87,9.87,0,0,1,2.46.73.72.72,0,0,1,.46,1c-.2.68-.38,1.37-.6,2-.13.42-.26.6-.5.6a1.26,1.26,0,0,1-.51-.17,7.82,7.82,0,0,0-3.42-.79h-.47a3.11,3.11,0,0,0-1,.21,1.47,1.47,0,0,0-.37,2.61,6.75,6.75,0,0,0,1.69,1A29.65,29.65,0,0,1,33,41a5.57,5.57,0,0,1,1.77,8.43Z" style="fill:#fff"/><path d="M9.56,97.45h-3a3.05,3.05,0,0,1-3-3.05V78.5a3.05,3.05,0,0,1,3-3.05h3a3.05,3.05,0,0,1,2.57,1.4,8.27,8.27,0,0,1,3.19-.64H29.9a8.55,8.55,0,0,1,5.84,2.18,7.36,7.36,0,0,1,2.34,5.49c0,.07,0,.13,0,.2A6.7,6.7,0,0,0,43,81.86c5.26-6,9.5-2.92,10-2.56h0a5.7,5.7,0,0,1,1.85,3.79,5.24,5.24,0,0,1-1.23,4c-3.23,3.75-8,7.79-23.75,8.26-11.6.07-16,.07-17.68,0C11.69,96.26,10.82,97.45,9.56,97.45Zm-3-19.69a.75.75,0,0,0-.74.75V94.39a.75.75,0,0,0,.74.75h3a5.14,5.14,0,0,0,.83-1.37,1.15,1.15,0,0,1,1.27-.7c1,.07,11.37,0,18.16,0,16-.48,19.8-4.85,22-7.46a3,3,0,0,0,.68-2.29,3.48,3.48,0,0,0-1-2.2h0c-.47-.38-3-2-6.79,2.27a9.22,9.22,0,0,1-6.77,3c-.41,0-.78.07-1.1.13A1.15,1.15,0,0,1,35.6,85a2.85,2.85,0,0,0,.18-1.1,5.08,5.08,0,0,0-1.61-3.79,6.25,6.25,0,0,0-4.27-1.56H15.31a6,6,0,0,0-3.23,1,1.15,1.15,0,0,1-1.78-1,.75.75,0,0,0-.75-.75Z" style="fill:#d0495a"/><path d="M36.67,86.55H22.84a1.15,1.15,0,1,1,0-2.31H36.67a1.15,1.15,0,0,1,0,2.31Z" style="fill:#d0495a"/><path d="M8.26,76.27a3.54,3.54,0,0,0-3.54,3.54V93.58a2.81,2.81,0,0,0,2.81,2.81H9a2.87,2.87,0,0,0,2.86-2.86V79.81A3.56,3.56,0,0,0,8.26,76.27ZM7,80.42a1,1,0,1,1,1-1A1,1,0,0,1,7,80.42Z" style="fill:#d0495a"/><path d="M34.89,15.81c-1.4-3.65-5.39-1.63-5.4,1,0-2.6-4-4.66-5.39-1s5.36,8,5.36,8S36.29,19.46,34.89,15.81Z" style="fill:#fff"/></g></g></svg>