<svg xmlns="http://www.w3.org/2000/svg" viewBox="0 0 55.25 105.23"><title>Asset 3</title><g id="Layer_2" data-name="Layer 2"><g id="Layer_1-2" data-name="Layer 1"><path d="M7.93,68.74H7.78A7.93,7.93,0,0,1,0,60.67l0-1A5.87,5.87,0,0,1,2.49,55a6,6,0,0,1-.65-.58A5.84,5.84,0,0,1,.2,50.2v-.51A8,8,0,0,1,14,44.27a8,8,0,0,1,2.24,5.27l23.56.25a7.72,7.72,0,0,1,15.44.4,6.09,6.09,0,0,1-2.55,4.92A6.07,6.07,0,0,1,55.06,60a8.17,8.17,0,0,1-8.28,8,7.11,7.11,0,0,1-6.95-6.49l-24-.45a7.92,7.92,0,0,1-7.91,7.65Zm-2-12.56a3.57,3.57,0,0,0-3.57,3.5l0,1a5.62,5.62,0,0,0,5.51,5.72,6,6,0,0,0,4-1.57,5.58,5.58,0,0,0,1.72-3.94l0-1a1.11,1.11,0,0,1,1.17-1.13L41,59.25a1.15,1.15,0,0,1,1.13,1.18v.41a4.8,4.8,0,0,0,4.71,4.88A5.86,5.86,0,0,0,52.76,60a3.78,3.78,0,0,0-3.7-3.84l0-2.31h.08a3.61,3.61,0,0,0,3.75-3.5,5.42,5.42,0,0,0-9.16-4.2A5.38,5.38,0,0,0,42.11,50l0,1a1.15,1.15,0,0,1-1.15,1.13h0l-25.85-.27a1.15,1.15,0,0,1-1.14-1.17v-.72a5.72,5.72,0,0,0-5.61-5.83,5.89,5.89,0,0,0-4.08,1.6,5.67,5.67,0,0,0-1.75,4v.51A3.56,3.56,0,0,0,6,53.88,1.15,1.15,0,0,1,7.13,55v0A1.13,1.13,0,0,1,6,56.18Z" style="fill:#d0495a"/><path d="M53.71,105.23h-.08c-6.68-.47-14-6.64-14.14-15.8-.32-9.55,8-16,14.14-16.46a1.13,1.13,0,0,1,.87.31,1.16,1.16,0,0,1,.37.84v30a1.16,1.16,0,0,1-1.15,1.15ZM52.56,75.46c-4.93,1.09-11,6.48-10.76,13.92a14,14,0,0,0,10.76,13.38Z" style="fill:#d0495a"/><path d="M23,104.94A23.5,23.5,0,0,1,1,89.5a1.15,1.15,0,0,1,0-.79A23.5,23.5,0,0,1,23,73.26c7.52,0,18.31,6.12,18.79,16.09C41.63,98.9,30.56,104.94,23,104.94ZM3.29,89.11A21.19,21.19,0,0,0,23,102.64c6.47,0,16.35-5.28,16.49-13.25C39.08,81,29.45,75.57,23,75.57A21.19,21.19,0,0,0,3.29,89.11Z" style="fill:#d0495a"/><path d="M18.22,104.16A1.15,1.15,0,0,1,17.06,103V75.09a1.15,1.15,0,0,1,2.31,0V103A1.15,1.15,0,0,1,18.22,104.16Z" style="fill:#d0495a"/><circle cx="11.85" cy="85.51" r="1.74" style="fill:#d0495a"/><path d="M9.29,34.46a1.15,1.15,0,0,1-.86-1.92l2.31-2.61a10.21,10.21,0,0,0,2.38-4.87l1.6-8.5A13.38,13.38,0,0,1,27.9,5.64h.24A13.43,13.43,0,0,1,41.31,18.47l.26,6a5.07,5.07,0,0,0,2,3.79l3.88,3a1.15,1.15,0,0,1-.68,2.06L9.32,34.46ZM27.9,7.94A11.08,11.08,0,0,0,17,17l-1.6,8.5a12.51,12.51,0,0,1-2.92,6l-.55.62,31.55-.91L42.1,30.11a7.39,7.39,0,0,1-2.84-5.51l-.26-6A11.12,11.12,0,0,0,28.09,7.95Z" style="fill:#d0495a"/><path d="M27.72,37.78A4.75,4.75,0,0,1,23,32.86a1.19,1.19,0,0,1,1.19-1.11,1.15,1.15,0,0,1,1.11,1.19,2.45,2.45,0,1,0,4.9-.05,1.15,1.15,0,0,1,1.08-1.22,1.14,1.14,0,0,1,1.22,1.08,4.75,4.75,0,0,1-4.76,5Z" style="fill:#d0495a"/><polygon points="40.7 26.25 24.84 32.42 45.77 31.73 41.99 28.8 40.7 26.25" style="fill:#d0495a"/><path d="M27.82,7.93A1.15,1.15,0,0,1,27,7.6,8.74,8.74,0,0,1,24.82,4a3.72,3.72,0,0,1,.35-2.87A2.4,2.4,0,0,1,26.82,0,2.58,2.58,0,0,1,29,.57a3.78,3.78,0,0,1,1.16,2.79A7.29,7.29,0,0,1,28.72,7.5a1.15,1.15,0,0,1-.83.43ZM27.35,2.3h-.14a1.25,1.25,0,0,0-.15,1.12,4.35,4.35,0,0,0,.55,1.22,3.89,3.89,0,0,0,.21-1.25,1.57,1.57,0,0,0-.32-1.06A.21.21,0,0,0,27.35,2.3Z" style="fill:#d0495a"/><path d="M38.43,82.77,18.22,95.17l.85,8.66s14.44,1,19-6.79A13.91,13.91,0,0,0,38.43,82.77Z" style="fill:#d0495a"/><path d="M43.15,65.68l10-8s1.87,7.13-4.25,8.83S43.15,65.68,43.15,65.68Z" style="fill:#d0495a"/></g></g></svg>