<svg xmlns="http://www.w3.org/2000/svg" viewBox="0 0 91.98 92.24"><defs><style>.cls-1{fill:#fff;}.cls-2,.cls-3{fill:#5597b1;}.cls-3{opacity:0.3;}.cls-4{fill:#b7626c;}</style></defs><title>Ресурс 5</title><g id="Слой_2" data-name="Слой 2"><g id="Слой_1-2" data-name="Слой 1"><path class="cls-1" d="M88.76,45.9a43.09,43.09,0,0,1-41,42.54c-.76,0-1.53.07-2.28.07h0c-22.35,0-40.9-18.8-41.33-41.92-.42-22.14,18-41.22,41-42.52C45.91,4,46.67,4,47.42,4,69.78,4,88.32,22.8,88.76,45.9Z"/><path class="cls-2" d="M57.25,51.23A16.08,16.08,0,0,0,50,45.84a10.07,10.07,0,1,0-11.12,0A16.14,16.14,0,0,0,28.31,61H31a13.42,13.42,0,0,1,24.4-7.73Zm-12.82-6.4a7.39,7.39,0,1,1,7.39-7.39A7.4,7.4,0,0,1,44.43,44.83Z"/><path class="cls-2" d="M47.41,64.87a3.71,3.71,0,0,1-.47,0c-3.82-.35-6.16-2.06-6.92-5.05-.53-1.92-.35-2.41,1.24-3.59.3-.2.57-.41.8-.58l1.84-1.3L45.79,53a2.33,2.33,0,0,1,3.05.18c.62.62,1.23,1.13,1.86,1.68l.62.52c0,.08,0,.07.17,0A18.26,18.26,0,0,0,59,46.13a.61.61,0,0,0,0-.19l-.31-.2a10.1,10.1,0,0,1-2.16-2.08,2.71,2.71,0,0,1-.51-1.94c.33-1.45.63-2.82.94-4.19l.44-2a2.41,2.41,0,0,1,1-1.55,5.36,5.36,0,0,1,2.77-.67,4.29,4.29,0,0,1,2.19.49,9,9,0,0,1,4.37,8,17,17,0,0,1-2.17,7.56C62.37,56.09,58,60.74,52.14,63.58A9.13,9.13,0,0,1,49,64.66,7.22,7.22,0,0,1,47.41,64.87ZM42,58.48l.17.66c.35,1.36,1.22,3.09,5,3.45h.23a5.37,5.37,0,0,0,1.21-.18,7,7,0,0,0,2.48-.86c5.38-2.63,9.46-6.94,12.5-13.2a14.94,14.94,0,0,0,1.94-6.57,6.72,6.72,0,0,0-3.33-6.07,2.3,2.3,0,0,0-1-.14,3.22,3.22,0,0,0-1.48.27L59.22,38c-.3,1.38-.6,2.74-.92,4.11,0,0,0,0,.15.24A8.35,8.35,0,0,0,60.14,44l.17.14A2.25,2.25,0,0,1,61.12,47,20.78,20.78,0,0,1,52.7,57.27a2.2,2.2,0,0,1-2.89-.22l-.57-.48c-.65-.55-1.31-1.11-1.94-1.74l-.13-.08c-.71.53-1.33,1-2,1.42l-1.82,1.28c-.21.17-.53.41-.82.6S42.17,58.35,42,58.48Z"/><path class="cls-3" d="M42,58.43l.17.66c.35,1.36,1.22,3.09,5,3.45h.24a6.22,6.22,0,0,0,1.21-.18,7.14,7.14,0,0,0,2.48-.86c5.37-2.63,9.45-6.94,12.49-13.2a14.94,14.94,0,0,0,1.94-6.57,6.7,6.7,0,0,0-3.32-6.07,2.37,2.37,0,0,0-1-.14,3.42,3.42,0,0,0-1.48.26L59.2,38c-.31,1.37-.61,2.74-.93,4.11,0,0,0,0,.15.24a8.35,8.35,0,0,0,1.69,1.58l.17.14a2.25,2.25,0,0,1,.81,2.86,20.82,20.82,0,0,1-8.42,10.32A2.2,2.2,0,0,1,49.78,57l-.57-.48c-.65-.55-1.31-1.12-1.94-1.74a.3.3,0,0,0-.13-.07c-.7.52-1.33,1-2,1.41L43.36,57.4c-.21.17-.53.41-.82.6S42.14,58.3,42,58.43Z"/><path class="cls-4" d="M92,46.35A47,47,0,0,0,47.37.07C46.55,0,45.73,0,44.92,0,20.63,0,.48,20.53,0,45.76c-.46,24.17,19.55,45,44.6,46.41.82,0,1.64.07,2.45.07h0c24.2,0,44.35-20.46,44.91-45.6v-.29Zm-3.68-.58a43.1,43.1,0,0,1-41,42.53c-.76,0-1.52.07-2.28.07h0c-22.36,0-40.9-18.8-41.34-41.91-.41-22.15,18-41.23,41-42.53q1.14-.06,2.28-.06C69.31,3.87,87.86,22.66,88.3,45.77Z"/></g></g></svg>