<svg xmlns="http://www.w3.org/2000/svg" viewBox="0 0 135.72 73.97"><defs><style>.cls-1{fill:#fff;}.cls-2,.cls-7{fill:#c7515f;}.cls-3,.cls-4{fill:#008dad;}.cls-4{opacity:0.3;}.cls-5,.cls-6{fill:none;}.cls-5{stroke:#008dad;stroke-width:2px;}.cls-5,.cls-6,.cls-7{stroke-miterlimit:10;}.cls-6,.cls-7{stroke:#c7515f;}</style></defs><title>Ресурс 2</title><g id="Слой_2" data-name="Слой 2"><g id="Слой_1-2" data-name="Слой 1"><path class="cls-1" d="M72.14,37A35.29,35.29,0,1,1,36.85,1.7,35.28,35.28,0,0,1,72.14,37Z"/><path class="cls-2" d="M70.58,36.57a34.57,34.57,0,0,1-32.78,34C18.85,71.65,3.47,55.89,3.13,37.4c-.35-18.27,15.05-33,32.78-34,19-1.07,34.32,14.69,34.67,33.18,0,1.77,3.16,3.11,3.12.83A37.94,37.94,0,0,0,37.8.06C17.08-1.12.39,16.48,0,36.57s16.46,36.25,35.9,37.35C56.63,75.09,73.32,57.5,73.7,37.4,73.73,35.62,70.62,34.29,70.58,36.57Z"/><path class="cls-3" d="M57.55,23.18a1.47,1.47,0,0,0-1.46-1.43H20.47A1.46,1.46,0,0,0,19,23.18c0,.1-.18,10.12.48,14.58C21.56,51.62,29.55,56,34.33,58.68a15.77,15.77,0,0,1,3,1.88,1.4,1.4,0,0,0,1,.38,1.51,1.51,0,0,0,1-.34l.11-.09a16.76,16.76,0,0,1,2.91-1.84C47,56,55,51.62,57.06,37.76,57.73,33.3,57.55,23.28,57.55,23.18ZM21.91,24.66H54.65c0,2.36,0,6.69-.2,10H22.12C21.9,31.35,21.89,27,21.91,24.66ZM40.84,56.13c-1,.54-1.83,1-2.55,1.51-.73-.5-1.58-1-2.55-1.51-4.58-2.53-11.51-6.37-13.36-18.8,0-.22-.06-.47-.09-.72h32c0,.25-.06.5-.09.72C52.34,49.77,45.42,53.6,40.84,56.13Z"/><rect class="cls-4" x="37.98" y="23.14" width="17.72" height="12.62"/><line class="cls-5" x1="38.46" y1="59.06" x2="38.46" y2="22.66"/><path class="cls-3" d="M57.5,22.86a1.4,1.4,0,0,0-1.26-1.56c-1.81-.3-15.65.46-17.52-2.63l-.39-.47v-.06l0,0,0,0v.06l-.38.47C36,21.76,22.18,21,20.37,21.3a1.39,1.39,0,0,0-1.25,1.56Z"/><path class="cls-4" d="M21.66,35.78l16.32,0,.41,22.54s.92,1.49-1.2.14-8.82-4.14-11.81-8.77S21,36.27,21,36.27l.48-.44"/><path class="cls-2" d="M37.88,50.65A2.25,2.25,0,0,1,36,49.76L25.43,34.4A1.6,1.6,0,0,1,26.24,32a2.39,2.39,0,0,1,2.9.66L37.62,45,53.78,14a2.32,2.32,0,0,1,2.8-.92,1.64,1.64,0,0,1,1.11,2.3L39.84,49.58A2.13,2.13,0,0,1,38,50.64Z"/><line class="cls-6" x1="74.67" y1="40.08" x2="135.72" y2="40.08"/><path class="cls-7" d="M78.71,39.27a5.34,5.34,0,1,1-5.34-5.33A5.34,5.34,0,0,1,78.71,39.27Z"/></g></g></svg>