<svg xmlns="http://www.w3.org/2000/svg" viewBox="0 0 78.76 93.24"><defs><style>.cls-1{fill:none;stroke:#5597b1;stroke-miterlimit:10;stroke-width:2px;}.cls-2{fill:#b7626c;}.cls-3,.cls-5{fill:#5597b1;}.cls-3{opacity:0.3;}.cls-4{fill:#fff;}.cls-5{opacity:0.9;}</style></defs><title>Ресурс 12</title><g id="Слой_2" data-name="Слой 2"><g id="Слой_1-2" data-name="Слой 1"><path class="cls-1" d="M58.07,72.08s.53-6.11,7.51-5.14c4.75.67,4.56,6.18,4.56,6.18s-.57,4.57-5,5.42H8.52V42.69H54.83"/><path class="cls-1" d="M58,71.79V42.12s.86-5.32,6-5.32a5.66,5.66,0,0,1,5.9,4.47L70,71.59"/><path class="cls-1" d="M11.87,76.16c.28,0,8.72-2.85,10.8-8.66s6.09-9.2,14.88-10.15l10.23-.87"/><path class="cls-2" d="M0,80.87V93.24H78.76V80.87ZM76.86,91.34H65.32V89.05h-1.9v2.29h-.76V89.05h-1.9v2.29H60V89.05h-1.9v2.29h-.76V89.05h-1.9v2.29h-.76V89.05h-1.9v2.29H52V89.05H50.1v2.29h-.76V89.05h-1.9v2.29h-.76V89.05h-1.9v2.29H44V89.05h-1.9v2.29h-.76V89.05h-1.9v2.29h-.76V89.05h-1.9v2.29H36V89.05h-1.9v2.29h-.76V89.05h-1.9v2.29h-.77V89.05h-1.9v2.29H28V89.05h-1.9v2.29h-.76V89.05h-1.9v2.29H22.7V89.05H20.8v2.29H20V89.05h-1.9v2.29h-.76V89.05h-1.9v2.29h-.77V89.05H12.82v2.29h-.77V89.05h-1.9v2.29H9.39V89.05H7.49v2.29H6.73V89.05H4.83v2.29H1.9V82.77h75Z"/><rect class="cls-2" x="72.26" y="85.92" width="1.9" height="2.47"/><path class="cls-3" d="M53.83,42.58v9.91S17.67,46.41,17.67,68.26l-1.4,10.37H8.52V42.69Z"/><polygon class="cls-4" points="21.15 58.36 32.3 20.34 36.12 20.24 40.16 20.13 51.84 59.21 49.3 59.11 36.76 20.45 35.63 20.76 24.12 58.79 20.94 59 21.15 58.36"/><path class="cls-5" d="M52,59.79h.77L41.37,19.23h0V6.91H37.5V0H35.18V6.91H31.33V20.59L19.91,59.66H21v2.27h.94v3.16h1.15V61.93h.67V59.66h.81L37,21.64,48.58,59.79h.65v2.14H50v3.16h1.15V61.93H52ZM32.86,8.43h.92v9.91h1.63V8.43h4.41v10.8h-7Zm-9.41,49.7H22L32.87,20.76h2.76ZM38.27,20.76h1.94L50.74,58.27h-1Z"/><path class="cls-3" d="M60.87,37.6a5.72,5.72,0,0,0-.53.45V67.57c.17-.09.34-.19.53-.27Z"/><path class="cls-3" d="M63.14,36.63a4.72,4.72,0,0,0-.88.22v30a7.23,7.23,0,0,1,.88-.17Z"/><path class="cls-3" d="M65.18,36.71a6.78,6.78,0,0,0-.7-.12h-.36v30h.15c.32,0,.63,0,.91,0Z"/><path class="cls-3" d="M69.86,41.27a5.59,5.59,0,0,0-4.16-4.44V66.6a5,5,0,0,1,4.63,3.87Z"/></g></g></svg>