<svg xmlns="http://www.w3.org/2000/svg" viewBox="0 0 68.45 68.7"><defs><style>.cls-1{fill:#fff;}.cls-2{fill:#b7626c;}.cls-3,.cls-4{fill:#5597b1;}.cls-3,.cls-5{opacity:0.3;}</style></defs><title>Ресурс 4</title><g id="Слой_2" data-name="Слой 2"><g id="Слой_1-2" data-name="Слой 1"><path class="cls-1" d="M67,34.35A32.77,32.77,0,1,1,34.23,1.58,32.78,32.78,0,0,1,67,34.35Z"/><path class="cls-2" d="M65.55,34A32.09,32.09,0,0,1,35.1,65.55c-17.6,1-31.87-13.64-32.2-30.81-.32-17,14-30.66,30.45-31.59C51,2.15,65.23,16.79,65.55,34c0,1.65,2.94,2.89,2.9.78A35.24,35.24,0,0,0,35.1.05C15.87-1,.36,15.3,0,34S15.3,67.63,33.35,68.65C52.59,69.74,68.1,53.4,68.45,34.74,68.48,33.08,65.59,31.85,65.55,34Z"/><polygon class="cls-3" points="8.12 42.55 34.75 23.94 60.47 42.18 34.39 60.79 8.12 42.55"/><path class="cls-2" d="M29.64,26.4V12.23a.92.92,0,0,0-1.83,0V26.4a3.38,3.38,0,1,0,1.83,0Z"/><path class="cls-2" d="M38.38,14.23S36.8,16.34,38,17.82s2,3.59,1.48,5.07-3.17,3.58-.74,6.33c0,0-.32-2.43.84-3.06a5.19,5.19,0,0,0,2.64-4.86c-.32-2.32-1.7-2.93-3.06-4.43A3.2,3.2,0,0,1,38.38,14.23Z"/><path class="cls-2" d="M42.37,10s-1.58,3.27-.42,5.55,2,5.56,1.48,7.84-3.17,5.56-.74,9.8c0,0-.32-3.76.84-4.73A9.49,9.49,0,0,0,46.17,21c-.32-3.59-1.7-4.54-3.06-6.86A7.11,7.11,0,0,1,42.37,10Z"/><path class="cls-2" d="M47.35,14.34s-1.58,2.11-.42,3.59,2,3.58,1.48,5.06-3.17,3.59-.74,6.33c0,0-.32-2.42.84-3.06a5.17,5.17,0,0,0,2.64-4.85c-.32-2.32-1.7-2.93-3.06-4.43A3.24,3.24,0,0,1,47.35,14.34Z"/><path class="cls-4" d="M28.71,36.13a6.47,6.47,0,0,1-3.47-11.92V11.47a3.32,3.32,0,0,1,3.47-3.13,3.31,3.31,0,0,1,3.46,3.13V24.21a6.46,6.46,0,0,1-3.46,11.92Zm0-26.33a1.87,1.87,0,0,0-2,1.67V25.06l-.38.21a5,5,0,1,0,4.77,0l-.38-.21V11.47A1.86,1.86,0,0,0,28.71,9.8Z"/><path class="cls-4" d="M34.58,58.28,7,38.69l6.19-4.27a.73.73,0,0,1,.83,1.2L9.52,38.71,34.59,56.5,59.71,39l-4-3.22a.73.73,0,1,1,.92-1.13l5.48,4.44Z"/><g class="cls-5"><path class="cls-4" d="M11.35,39.58H9.52a.73.73,0,1,1,0-1.46h1.83a.74.74,0,0,1,.73.73A.73.73,0,0,1,11.35,39.58Z"/><path class="cls-4" d="M54.87,39.65H51.24a.72.72,0,0,1-.72-.73.73.73,0,0,1,.73-.73h3.62a.73.73,0,0,1,0,1.46Zm-7.25,0H44a.73.73,0,0,1,0-1.46h3.63a.73.73,0,0,1,0,1.46Zm-7.26,0H36.74a.73.73,0,1,1,0-1.46h3.63a.73.73,0,0,1,.73.73A.74.74,0,0,1,40.36,39.63Zm-7.25,0H29.48a.73.73,0,0,1,0-1.46h3.63a.73.73,0,1,1,0,1.45Zm-7.25,0H22.23a.73.73,0,0,1,0-1.46h3.63a.73.73,0,0,1,.73.73A.74.74,0,0,1,25.86,39.61Zm-7.26,0H15a.73.73,0,0,1,0-1.46H18.6a.74.74,0,0,1,.73.74A.73.73,0,0,1,18.6,39.59Z"/><path class="cls-4" d="M60.32,39.66H58.5a.73.73,0,0,1,0-1.46h1.82a.73.73,0,0,1,0,1.46Z"/></g></g></g></svg>