<svg xmlns="http://www.w3.org/2000/svg" viewBox="0 0 135.72 73.9"><defs><style>.cls-1{fill:#fff;}.cls-2,.cls-6{fill:#c7515f;}.cls-3,.cls-4{fill:#008dad;}.cls-4{opacity:0.3;}.cls-5{fill:none;}.cls-5,.cls-6{stroke:#c7515f;stroke-miterlimit:10;}</style></defs><title>Ресурс 3</title><g id="Слой_2" data-name="Слой 2"><g id="Слой_1-2" data-name="Слой 1"><path class="cls-1" d="M72.22,37A35.37,35.37,0,1,1,36.85,1.58,35.36,35.36,0,0,1,72.22,37Z"/><path class="cls-2" d="M36.85,72.76A35.81,35.81,0,1,1,72.66,37,35.85,35.85,0,0,1,36.85,72.76ZM36.85,2A34.94,34.94,0,1,0,71.79,37,35,35,0,0,0,36.85,2Z"/><path class="cls-2" d="M73.7,37.13A37.62,37.62,0,0,0,38,.06C37.3,0,36.65,0,36,0,16.53,0,.39,16.45,0,36.66-.36,56,15.68,72.71,35.75,73.84c.65,0,1.31.06,2,.06h0c19.4,0,35.54-16.39,36-36.53v-.24Zm-3-.46A34.54,34.54,0,0,1,37.91,70.75c-.61,0-1.22,0-1.83,0h0C18.17,70.8,3.31,55.74,3,37.22c-.34-17.74,14.4-33,32.84-34.07.61,0,1.22,0,1.82,0C55.54,3.1,70.39,18.16,70.75,36.67Z"/><path class="cls-3" d="M58.44,31.51,37.23,33.23l-.74-9.13a.87.87,0,0,0-.94-.79l-5.17.41a.87.87,0,0,0-.8.94L30.17,32,26,32.33a.88.88,0,0,0-.6.31.87.87,0,0,0-.2.64l1.06,11.2a.86.86,0,0,0,.93.79l10.07-.82a.87.87,0,0,0,.79-.93l-.24-3L59,38.78a.87.87,0,0,0,.79-.94l-.44-5.53A.87.87,0,0,0,58.44,31.51ZM36.26,42.79l-8.35.68L27,34l4.16-.34a.87.87,0,0,0,.8-.93l-.6-7.33,3.45-.28.74,9.13L36,39.77ZM58,37.12,37.68,38.77,37.37,35l20.34-1.65Z"/><line class="cls-2" x1="21.79" y1="41.31" x2="12.71" y2="32.23"/><path class="cls-2" d="M21.79,42.18a.85.85,0,0,1-.61-.25l-9.09-9.09a.87.87,0,0,1,1.23-1.22l9.09,9.08a.87.87,0,0,1-.62,1.48Z"/><line class="cls-2" x1="20.87" y1="43.34" x2="11.34" y2="43.34"/><path class="cls-2" d="M20.87,44.21H11.34a.87.87,0,0,1,0-1.73h9.53a.87.87,0,1,1,0,1.73Z"/><line class="cls-2" x1="23.42" y1="39.75" x2="22.26" y2="27.96"/><path class="cls-2" d="M23.5,40.61a.87.87,0,0,1-.95-.78L21.39,28a.87.87,0,1,1,1.73-.17l1.16,11.79A.87.87,0,0,1,23.5,40.61Z"/><path class="cls-4" d="M58,45.46v-.08H15.44v.09a2.34,2.34,0,0,0,0,4.65v.08H58v-.08a2.34,2.34,0,0,0,0-4.66Z"/><line class="cls-5" x1="74.67" y1="36.64" x2="135.72" y2="36.64"/><path class="cls-6" d="M78.71,35.84a5.34,5.34,0,1,1-5.34-5.34A5.34,5.34,0,0,1,78.71,35.84Z"/></g></g></svg>