<svg xmlns="http://www.w3.org/2000/svg" viewBox="0 0 88.34 85.87"><defs><style>.cls-1,.cls-2{fill:#008dad;}.cls-2{opacity:0.3;}.cls-3{fill:#c7515f;}</style></defs><title>Ресурс 8</title><g id="Слой_2" data-name="Слой 2"><g id="Слой_1-2" data-name="Слой 1"><path class="cls-1" d="M88.34,57.5l-.16-8-5,.1A21.19,21.19,0,0,0,79.94,42l3.66-3.81-5.87-5.64-3.61,3.75a21.09,21.09,0,0,0-8.05-3.17L66,28,58,28.12l.11,5.16a21.12,21.12,0,0,0-7.72,3.35L46.59,33,41,38.85l3.8,3.65a21.27,21.27,0,0,0-3.09,8l-5,.1.16,7.95,5-.11a21.07,21.07,0,0,0,3.48,7.83l-3.85,4,5.87,5.64,3.91-4.08a21.3,21.3,0,0,0,7.69,3l.11,5.35L67,80l-.11-5.36a20.86,20.86,0,0,0,7.77-3.39l4,3.86,5.64-5.88-4-3.85a21,21,0,0,0,3-7.76Zm-6.74-1A19.34,19.34,0,0,1,78.32,65l-.47.66,3.81,3.66-3,3.15-3.81-3.66-.64.5a19.37,19.37,0,0,1-8.4,3.66l-.8.14.1,5.07-4.17.09-.1-5.08L60,73a19.31,19.31,0,0,1-8.34-3.19L51,69.4l-3.7,3.85-3.16-3,3.67-3.81-.5-.65a19.24,19.24,0,0,1-3.76-8.44l-.14-.8-4.77.1-.08-4.17,4.74-.1.1-.81a19.28,19.28,0,0,1,3.34-8.63l.46-.66-3.59-3.46,3-3.15,3.61,3.46.64-.49A19.32,19.32,0,0,1,59.24,35l.8-.13L59.94,30l4.18-.09.09,4.88.81.11a19.16,19.16,0,0,1,8.68,3.42l.66.48,3.42-3.57,3.15,3-3.45,3.59.48.64a19.22,19.22,0,0,1,3.54,8.31l.14.81,4.69-.1.09,4.17-4.72.1Z"/><path class="cls-1" d="M62.21,40.11A13.94,13.94,0,1,0,76.44,53.77,14,14,0,0,0,62.21,40.11Zm.53,26A12.06,12.06,0,1,1,74.55,53.8,12.08,12.08,0,0,1,62.74,66.11Z"/><path class="cls-2" d="M37.83,30.68l4-1.3-2-6.12-4,1.27a17,17,0,0,0-4.52-5.36l1.89-3.67-5.58-2.87L25.82,16.3a17,17,0,0,0-6.8-.57l-1.29-4-6.13,2,1.29,4A17,17,0,0,0,7.61,22.2L4,20.36,1.17,26l3.6,1.84a17,17,0,0,0-.53,6.92L0,36.07,2,42.2l4.31-1.39a16.9,16.9,0,0,0,4.34,5.06L8.67,49.69l5.58,2.86,2-3.81a17,17,0,0,0,6.84.57l1.36,4.24,6.13-2-1.36-4.25A17.11,17.11,0,0,0,34.32,43l3.56,1.83,2.87-5.59L37.21,37.4A16.94,16.94,0,0,0,37.83,30.68ZM29.55,37a9.67,9.67,0,0,1-9.18,5.23,9.48,9.48,0,0,1-3.82-1,9.66,9.66,0,0,1,5-18.23,9.82,9.82,0,0,1,3.82,1,9.67,9.67,0,0,1,4.18,13Z"/><path class="cls-1" d="M37.83,30.68l4-1.3-2-6.12-4,1.27a17,17,0,0,0-4.52-5.36l1.89-3.67-5.58-2.87L25.82,16.3a17,17,0,0,0-6.8-.57l-1.29-4-6.13,2,1.29,4A17,17,0,0,0,7.61,22.2L4,20.36,1.17,26l3.6,1.84a17,17,0,0,0-.53,6.92L0,36.07,2,42.2l4.31-1.39a16.9,16.9,0,0,0,4.34,5.06L8.67,49.69l5.58,2.86,2-3.81a17,17,0,0,0,6.84.57l1.36,4.24,6.13-2-1.36-4.25A17.11,17.11,0,0,0,34.32,43l3.56,1.83,2.87-5.59L37.21,37.4A16.94,16.94,0,0,0,37.83,30.68Zm1,9.15L37.27,42.9,33.9,41.17l-.36.49A15.53,15.53,0,0,1,28,46.36l-.54.27,1.3,4-3.43,1.11-1.3-4-.6.09a15.52,15.52,0,0,1-7.35-.61L15.5,47l-1.86,3.63-3.07-1.57,1.86-3.63-.49-.36a15.5,15.5,0,0,1-4.69-5.45L7,39.11,2.88,40.42,1.78,37l4.05-1.3-.1-.6a15.53,15.53,0,0,1,.56-7.42l.19-.58L3.07,25.33l1.58-3.06L8,24l.36-.5a15.47,15.47,0,0,1,5.66-4.84l.55-.27-1.23-3.82,3.43-1.11L18,17.3l.6-.09a15.49,15.49,0,0,1,7.31.62l.57.19,1.8-3.49,3.06,1.58L29.59,19.6l.5.36a15.56,15.56,0,0,1,4.84,5.74l.26.55L39,25l1.1,3.43L36.26,29.7l.09.59a15.59,15.59,0,0,1-.66,7.24l-.2.58Z"/><path class="cls-1" d="M26,22.74a10.92,10.92,0,0,0-4.38-1.21A11.07,11.07,0,1,0,31.5,29.2,11,11,0,0,0,26,22.74ZM29.55,37a9.67,9.67,0,0,1-9.18,5.23,9.48,9.48,0,0,1-3.82-1,9.66,9.66,0,0,1,5-18.23,9.82,9.82,0,0,1,3.82,1,9.67,9.67,0,0,1,4.18,13Z"/><path class="cls-3" d="M19.05,73.25a3.87,3.87,0,1,1-3.87-3.86A3.87,3.87,0,0,1,19.05,73.25Z"/><path class="cls-3" d="M36.82,81a4.9,4.9,0,1,1-4.9-4.9A4.9,4.9,0,0,1,36.82,81Z"/><polygon class="cls-3" points="29.86 59.98 14.02 59.98 14.02 69.94 16.35 69.94 16.35 62.3 29.86 62.3 29.86 59.98"/><rect class="cls-3" x="30.63" y="55.87" width="2.32" height="3.35"/><rect class="cls-3" x="30.63" y="63.02" width="2.32" height="13.55"/><rect class="cls-3" x="33.65" y="59.98" width="3.29" height="2.32"/><path class="cls-3" d="M52.91,18.07v8.7H68.75V24.44H55.24V18.07a4.74,4.74,0,1,0-2.33,0Zm-1.83-4.58a3,3,0,1,1,3,3A3,3,0,0,1,51.08,13.49Z"/><path class="cls-3" d="M69.52,11.37V23.73h2.33V11.42a5.76,5.76,0,1,0-2.33-.05Zm1.29-1.58a4,4,0,1,1,4-4A4,4,0,0,1,70.81,9.79Z"/><rect class="cls-3" x="69.52" y="27.52" width="2.32" height="3.35"/><rect class="cls-3" x="72.54" y="24.44" width="3.29" height="2.32"/></g></g></svg>