<svg xmlns="http://www.w3.org/2000/svg" viewBox="0 0 68.45 68.7"><defs><style>.cls-1{fill:#fff;}.cls-2{fill:#b7626c;}.cls-3,.cls-4{fill:#5597b1;}.cls-4{opacity:0.3;}.cls-5{fill:none;stroke:#5597b1;stroke-miterlimit:10;stroke-width:2px;}</style></defs><title>Ресурс 2</title><g id="Слой_2" data-name="Слой 2"><g id="Слой_1-2" data-name="Слой 1"><path class="cls-1" d="M67,34.35A32.77,32.77,0,1,1,34.23,1.58,32.78,32.78,0,0,1,67,34.35Z"/><path class="cls-2" d="M65.55,34A32.11,32.11,0,0,1,35.1,65.55c-17.6,1-31.87-13.64-32.2-30.81-.32-17,14-30.66,30.45-31.59C51,2.15,65.23,16.79,65.55,34c0,1.65,2.94,2.89,2.9.78A35.24,35.24,0,0,0,35.1.05C15.86-1,.36,15.3,0,34S15.29,67.63,33.35,68.65C52.59,69.74,68.1,53.4,68.45,34.74,68.48,33.08,65.59,31.85,65.55,34Z"/><path class="cls-3" d="M53.45,21.53A1.37,1.37,0,0,0,52.1,20.2H19a1.37,1.37,0,0,0-1.35,1.33c0,.09-.16,9.4.45,13.54,1.92,12.87,9.34,17,13.77,19.43a14.33,14.33,0,0,1,2.75,1.75,1.34,1.34,0,0,0,.91.35,1.46,1.46,0,0,0,.89-.31l.11-.09a15.11,15.11,0,0,1,2.7-1.7C43.67,52,51.08,47.94,53,35.07,53.62,30.93,53.45,21.62,53.45,21.53ZM20.35,22.9H50.76c0,2.2,0,6.21-.19,9.3h-30C20.34,29.11,20.33,25.1,20.35,22.9ZM37.93,52.13a27.53,27.53,0,0,0-2.37,1.41,26.08,26.08,0,0,0-2.37-1.41c-4.25-2.35-10.69-5.91-12.4-17.46,0-.2-.06-.43-.09-.67H50.41c0,.24,0,.47-.08.67C48.61,46.22,42.18,49.78,37.93,52.13Z"/><rect class="cls-4" x="35.27" y="21.5" width="16.45" height="11.72"/><line class="cls-5" x1="35.72" y1="54.86" x2="35.72" y2="21.04"/><path class="cls-3" d="M53.4,21.23a1.3,1.3,0,0,0-1.17-1.45c-1.68-.27-14.53.43-16.27-2.44l-.36-.44v0l0,0,0,0v0l-.35.44c-1.74,2.87-14.6,2.17-16.28,2.44a1.3,1.3,0,0,0-1.17,1.45Z"/><path class="cls-4" d="M20.12,33.23H35.27l.39,20.93s.85,1.39-1.12.13-8.19-3.85-11-8.15-4.08-12.45-4.08-12.45l.45-.4"/><path class="cls-2" d="M35.18,47a2.05,2.05,0,0,1-1.71-.83L23.62,32a1.49,1.49,0,0,1,.75-2.22,2.22,2.22,0,0,1,2.69.61l7.88,11.42L50,13a2.14,2.14,0,0,1,2.6-.85,1.53,1.53,0,0,1,1,2.13L37,46.05a2,2,0,0,1-1.7,1Z"/></g></g></svg>