<svg xmlns="http://www.w3.org/2000/svg" viewBox="0 0 88.46 67.19"><defs><style>.cls-1,.cls-2{fill:#008dad;}.cls-2{opacity:0.3;}.cls-3{fill:none;stroke:#009bc6;stroke-miterlimit:10;opacity:0.9;}.cls-4{fill:#c7515f;}</style></defs><title>Ресурс 5</title><g id="Слой_2" data-name="Слой 2"><g id="Слой_1-2" data-name="Слой 1"><path class="cls-1" d="M60.33,19.72l.26,0V11.12h-10V9.23a5.36,5.36,0,1,0-7.73,0v1.89h-10v8.61h-.1a5.36,5.36,0,1,0,0,10.72l.1,0v8.39h10V36.92a5.36,5.36,0,1,1,7.73,0v1.89h10v-8.4c-.09,0-.17,0-.26,0a5.36,5.36,0,1,1,0-10.72Z"/><path class="cls-2" d="M88.2,19.72l.26,0V11.12h-10V9.23a5.36,5.36,0,1,0-7.74,0v1.89h-10v8.61h-.1a5.36,5.36,0,1,0,0,10.72l.1,0v8.49h10V37.09a5.36,5.36,0,1,1,7.74,0v1.82h10v-8.5c-.09,0-.18,0-.26,0a5.36,5.36,0,1,1,0-10.72Z"/><path class="cls-3" d="M60.32,47.5l.26,0V38.9h-10V37a5.36,5.36,0,1,0-7.73,0V38.9h-10v8.61h-.1a5.36,5.36,0,1,0,0,10.71h.1v8.48h10V64.87a5.36,5.36,0,1,1,7.73,0v1.82h10v-8.5l-.26,0a5.36,5.36,0,1,1,0-10.71Z"/><path class="cls-4" d="M33,19.54c.09,0,.17,0,.25,0V11h-10V9.05a5.36,5.36,0,1,0-7.74,0V11h-10v8.6h-.1a5.36,5.36,0,0,0,0,10.72h.1v8.48h10V36.92a5.36,5.36,0,1,1,7.74,0v1.81h10v-8.5a1.9,1.9,0,0,1-.25,0,5.36,5.36,0,1,1,0-10.72Z"/></g></g></svg>