<svg xmlns="http://www.w3.org/2000/svg" viewBox="0 0 91.98 92.24"><defs><style>.cls-1{fill:#fff;}.cls-2{fill:#d1495d;}.cls-3,.cls-4{fill:#0091b6;}.cls-3{opacity:0.3;}</style></defs><title>Ресурс 4</title><g id="Слой_2" data-name="Слой 2"><g id="Слой_1-2" data-name="Слой 1"><path class="cls-1" d="M88.43,45.9a43.09,43.09,0,0,1-41,42.54c-.76,0-1.53.07-2.28.07h0c-22.35,0-40.9-18.8-41.33-41.92-.42-22.14,18-41.22,41-42.52C45.57,4,46.34,4,47.09,4,69.45,4,88,22.8,88.43,45.9Z"/><path class="cls-2" d="M92,46.35A47,47,0,0,0,47.37.07C46.55,0,45.73,0,44.92,0,20.63,0,.48,20.53,0,45.76c-.46,24.17,19.55,45,44.6,46.41.82,0,1.64.07,2.45.07h0c24.2,0,44.35-20.46,44.91-45.6v-.29Zm-3.68-.58a43.1,43.1,0,0,1-41,42.53c-.76,0-1.53.07-2.28.07h0c-22.36,0-40.91-18.8-41.34-41.91-.42-22.15,18-41.23,41-42.53q1.15-.06,2.28-.06C69.31,3.87,87.86,22.66,88.3,45.77Z"/><path class="cls-3" d="M24.45,19.41v47.5H71Zm7.28,39.86V37.65l21.5,22H31.73Z"/><path class="cls-4" d="M24.18,18.4V67.73h49ZM61.74,63.9v2h-2.3V62.44H57.59v3.44h-2.3v-2H53.45v2h-2.3V62.44H49.3v3.44H47v-2H45.16v2h-2.3V62.44H41v3.44h-2.3v-2H36.87v2h-2.3V62.44H32.72v3.44H30.43v-2H28.58v2H26V63h2.09V61.18H26V58.89h3.55V57H26v-2.3h2.09V52.89H26V50.6h3.55V48.75H26v-2.3h2.09V44.6H26V42.31h3.55V40.46H26v-2.3h2.09V36.31H26V34h3.55V32.17H26v-2.3h2.09V28H26V22.88l42.67,43H63.58v-2Z"/><path class="cls-4" d="M31.54,60.45H55.22L31.54,36.58ZM51.7,59H33V40.14Z"/><path class="cls-4" d="M32,32.06a1,1,0,0,0-1.31,0,.93.93,0,0,0,0,1.31L58.55,61.22a1,1,0,0,0,.66.26.91.91,0,0,0,.65-.27.92.92,0,0,0,0-1.3Z"/><path class="cls-4" d="M55.4,38.17a.82.82,0,0,1-.56-.23l-4.72-4.45a.83.83,0,1,1,1.14-1.2L56,36.74a.83.83,0,0,1,0,1.17A.87.87,0,0,1,55.4,38.17Z"/><path class="cls-4" d="M59.33,41.7a.81.81,0,0,1-.56-.22l-1.83-1.7a.82.82,0,0,1,0-1.17.83.83,0,0,1,1.17,0l1.83,1.7a.82.82,0,0,1,0,1.17A.87.87,0,0,1,59.33,41.7Z"/><path class="cls-2" d="M72.1,47,47.66,23a.81.81,0,0,0-.41-.46L47,22.39l-.08,0-.28-.12-6.43,6.35.16.45a.83.83,0,0,0,.51.49L65.7,53.82A.83.83,0,0,0,66,54a4.13,4.13,0,0,0,1.26.22,2.45,2.45,0,0,0,1.26-.3l.13-.1a33,33,0,0,0,3.81-4A2.2,2.2,0,0,0,72.1,47ZM42.45,28.73l.74-.77,3.65-3.49L64.46,41.82l-4.17,4.39Zm19.9,19.49,4.17-4.38.67.66L63,48.88Zm1.39,1.37,4.17-4.38.35.35L64.1,49.93ZM71.08,49a31.47,31.47,0,0,1-3.42,3.53,2,2,0,0,1-.94,0l-1.91-1.87L69,46.26l2,2A.58.58,0,0,1,71.08,49Z"/><path class="cls-4" d="M40.5,29.33l6.73-6.79s0,0-.07-.05l-.24-.11-.09,0L38,18.43a.83.83,0,0,0-1.12,1L40.29,29A.69.69,0,0,0,40.5,29.33Zm4.64-5.92-3.21,3.37-.51.49-2.33-6.54Z"/><path class="cls-4" d="M40.54,29.35s1.3.37,1.44,0,.07-.68.45-.68,1.78.74,2,.31-1.41-1.33-.8-1.53.61,0,.85-.2.27-.37.27-1-.9-.86.1-1.21,1.68-.28,1.64-.75-.11-.59.34-.72.44-1.08.35-1.09l-.86-.09-1.06,1.8a12.21,12.21,0,0,0-1.28.87,8.35,8.35,0,0,0-.74,1,2,2,0,0,1-.8.74c-.49.26-.49.49-.91.79a2.82,2.82,0,0,0-.76.8c-.06.12-.47.67-.47.67Z"/></g></g></svg>