<svg xmlns="http://www.w3.org/2000/svg" viewBox="0 0 72.29 75.05"><defs><style>.cls-1{fill:#c7515f;}.cls-2{fill:#fff;}.cls-3{fill:none;stroke:#009bc6;stroke-miterlimit:10;}.cls-4,.cls-5{fill:#008dad;}.cls-4,.cls-6{opacity:0.3;}</style></defs><title>Ресурс 6</title><g id="Слой_2" data-name="Слой 2"><g id="Слой_1-2" data-name="Слой 1"><rect class="cls-1" x="22.91" y="7.9" width="49.38" height="60.43"/><polygon class="cls-1" points="22.01 68.33 0 75.05 0.4 0 22.01 7.9 22.01 68.33"/><path class="cls-2" d="M70.39,14.58a3.76,3.76,0,0,0-3.47-3.46v0H28.21v0a1.75,1.75,0,0,0-.33,0,3.77,3.77,0,0,0-3.65,3.48h0v.89h0a3.5,3.5,0,0,0,.12.63h-.1a2.74,2.74,0,0,0,.94,1.59,3.55,3.55,0,0,0,1.62,1.07H26.7v47h0v.15H62.92c-.31,0-.59-.1-.88-.15h5.88v-47h-.13a3.64,3.64,0,0,0,1.65-1.07,2.81,2.81,0,0,0,1-1.59h-.11a4.62,4.62,0,0,0,.11-.63h0v-.89Z"/><rect class="cls-3" x="26.89" y="18.86" width="41.23" height="47.01"/><path class="cls-3" d="M70.62,15.12a3.82,3.82,0,0,0-3.51-3.91v0H28.4v0c-.11,0-.22,0-.34,0a3.81,3.81,0,0,0-3.68,3.93A3.8,3.8,0,0,0,28.06,19c.12,0,.23,0,.34,0v0H67.11A3.82,3.82,0,0,0,70.62,15.12Z"/><line class="cls-3" x1="33.18" y1="51.93" x2="39.46" y2="51.93"/><line class="cls-3" x1="33.11" y1="53.52" x2="37.67" y2="53.52"/><path class="cls-4" d="M62,53.12a6.21,6.21,0,1,1-6.21-6.2A6.21,6.21,0,0,1,62,53.12Z"/><path class="cls-4" d="M59.93,53.12a4.19,4.19,0,1,1-4.19-4.19A4.18,4.18,0,0,1,59.93,53.12Z"/><path class="cls-5" d="M36.41,57.62c1.82-1.62,3.92-2.75,5.66-4.49a50.83,50.83,0,0,0,4.36-5.54L45,47.73c-.94,2.71-3.35,4.53-4.12,7.3-.47,1.67,1.43,1.56,2.64,1.49.82-.06,2.26-.44,1.42.78-.65,1-1.39,1.62-1.52,2.8-.26,2.36,5.39,2.07,6.4,2.93.31.27,1.3-.29,1.47-.14-1.49-1.28-3.47-.76-5.23-1.41-2.91-1.06.36-4.11,1-5.42a3.14,3.14,0,0,0-.55,0c-.73,0-1.38.12-2.1.22-2.34.31-2.29-.5-1.85-2.12.67-2.43,3.07-4.11,3.91-6.54,0,0-1.3-.08-1.47.14a57.91,57.91,0,0,1-5,6.21c-1.48,1.48-3.38,2.38-4.94,3.77.1-.09,1.14.17,1.43-.09Z"/><path class="cls-4" d="M27.46,19.43l15.41-.35S35.11,62.72,63.1,66H26.89Z"/><line class="cls-3" x1="33.7" y1="27.76" x2="61.84" y2="27.76"/><line class="cls-3" x1="33.7" y1="31.43" x2="61.84" y2="31.43"/><line class="cls-3" x1="33.7" y1="35.11" x2="61.84" y2="35.11"/><line class="cls-3" x1="33.7" y1="38.78" x2="61.84" y2="38.78"/><line class="cls-3" x1="33.7" y1="24.08" x2="61.84" y2="24.08"/><path class="cls-4" d="M24.43,16.19a3.52,3.52,0,0,0,3.64,2.57c.11,0,.22,0,.33,0v0H67.11v0a3.44,3.44,0,0,0,3.46-2.55Z"/><g class="cls-6"><line class="cls-5" x1="24.38" y1="15.12" x2="70.62" y2="15.12"/><rect class="cls-5" x="24.38" y="14.67" width="46.24" height="0.89"/></g><g class="cls-6"><line class="cls-5" x1="24.82" y1="14.04" x2="70.32" y2="14.04"/><rect class="cls-5" x="24.82" y="13.79" width="45.5" height="0.5"/></g></g></g></svg>