<svg xmlns="http://www.w3.org/2000/svg" viewBox="0 0 71.51 71.51"><defs><style>.cls-1{fill:#008dad;opacity:0.3;}.cls-2{fill:#009bc6;}.cls-3{fill:#c7515f;}</style></defs><title>Ресурс 9</title><g id="Слой_2" data-name="Слой 2"><g id="Слой_1-2" data-name="Слой 1"><path class="cls-1" d="M55,35.75A19.28,19.28,0,1,1,35.75,16.48,19.28,19.28,0,0,1,55,35.75Z"/><path class="cls-2" d="M35.75,0A35.76,35.76,0,1,0,71.51,35.75,35.79,35.79,0,0,0,35.75,0Zm.62,68.64V65.76h-1.9v2.87a32.94,32.94,0,0,1-31.6-32H6v-1.9H2.88A32.92,32.92,0,0,1,34.47,2.88V6h1.9V2.87A32.92,32.92,0,0,1,68.63,34.72H65.7v1.9h2.94A32.93,32.93,0,0,1,36.37,68.64Z"/><path class="cls-3" d="M31.81,17.78a1,1,0,1,1-1-1.05A1,1,0,0,1,31.81,17.78Z"/><path class="cls-3" d="M27.17,19.58a1,1,0,1,1-1.05-1A1,1,0,0,1,27.17,19.58Z"/><path class="cls-3" d="M23.46,22.62a1,1,0,1,1-1-1.05A1,1,0,0,1,23.46,22.62Z"/><path class="cls-3" d="M20.33,26.41a1,1,0,1,1-1-1A1,1,0,0,1,20.33,26.41Z"/><path class="cls-3" d="M18.53,30.69a1,1,0,1,1-1.05-1.05A1,1,0,0,1,18.53,30.69Z"/><path class="cls-3" d="M17.67,35.62a1,1,0,1,1-1-1A1,1,0,0,1,17.67,35.62Z"/><path class="cls-3" d="M39.65,53.77a1,1,0,1,1,1.05,1A1,1,0,0,1,39.65,53.77Z"/><path class="cls-3" d="M44.3,52a1,1,0,1,1,1.05,1A1,1,0,0,1,44.3,52Z"/><path class="cls-3" d="M48,48.93a1,1,0,1,1,2.09,0,1,1,0,0,1-2.09,0Z"/><path class="cls-3" d="M51.14,45.13a1,1,0,0,1,2.09,0,1,1,0,1,1-2.09,0Z"/><path class="cls-3" d="M52.94,40.86a1,1,0,1,1,2.09,0,1,1,0,0,1-2.09,0Z"/><circle class="cls-3" cx="54.84" cy="35.92" r="1.04"/><path class="cls-3" d="M48.61,35.75A12.86,12.86,0,1,1,35.75,22.9,12.86,12.86,0,0,1,48.61,35.75Z"/><path class="cls-2" d="M36.78,35V12.22a.95.95,0,0,0-1.9,0V34.58a.46.46,0,0,0-.13.08L17.23,48.06a1.43,1.43,0,0,0-.26,2,1.41,1.41,0,0,0,1.13.56,1.42,1.42,0,0,0,.87-.29L36.48,36.92A1.43,1.43,0,0,0,36.78,35Z"/><path class="cls-2" d="M38.19,35.75a2.44,2.44,0,1,1-2.44-2.43A2.44,2.44,0,0,1,38.19,35.75Z"/></g></g></svg>