<svg xmlns="http://www.w3.org/2000/svg" viewBox="0 0 91.98 92.24"><defs><style>.cls-1{fill:#fff;}.cls-2{fill:#b7626c;}.cls-3,.cls-4{fill:#5597b1;}.cls-4{opacity:0.3;}</style></defs><title>Ресурс 9</title><g id="Слой_2" data-name="Слой 2"><g id="Слой_1-2" data-name="Слой 1"><path class="cls-1" d="M88.29,45.9a43.09,43.09,0,0,1-41,42.54c-.77,0-1.53.07-2.28.07h0c-22.36,0-40.9-18.8-41.33-41.92-.42-22.14,18-41.22,41-42.52C45.43,4,46.19,4,47,4,69.31,4,87.85,22.8,88.29,45.9Z"/><path class="cls-2" d="M92,46.35A47,47,0,0,0,47.37.07C46.55,0,45.74,0,44.92,0,20.63,0,.48,20.53,0,45.76c-.46,24.17,19.55,45,44.6,46.41.82,0,1.64.07,2.45.07h0c24.2,0,44.35-20.46,44.91-45.6v-.29Zm-3.68-.58a43.1,43.1,0,0,1-41,42.53c-.76,0-1.52.07-2.28.07h0c-22.36,0-40.9-18.8-41.34-41.91-.41-22.15,18-41.23,41-42.53.77,0,1.53-.06,2.29-.06C69.31,3.87,87.86,22.66,88.3,45.77Z"/><rect class="cls-2" x="60.81" y="42.61" width="1.7" height="4.82"/><rect class="cls-2" x="60.81" y="22.91" width="1.7" height="15.01"/><path class="cls-2" d="M61.72,54.65a4.05,4.05,0,1,1,4-4A4.05,4.05,0,0,1,61.72,54.65Zm0-6.4a2.35,2.35,0,1,0,2.35,2.35A2.35,2.35,0,0,0,61.72,48.25Z"/><path class="cls-2" d="M64.9,27.25,66.26,27V25a.51.51,0,0,0-.32-.48v0h-.09l-.1,0-.08,0H61.92v1.38h3.31v.3l-1.36.26v2.13l1.36.24v.55H61.62V30.7h4a.66.66,0,0,0,.15,0,.51.51,0,0,0,.51-.52V27.89l-1.36-.23Z"/><path class="cls-3" d="M51.64,71.74h-1.7V42.09l7.92.07a12.77,12.77,0,0,0,3.86-.49,3.1,3.1,0,0,0,2.21-3l-24.21.13a3,3,0,0,0-2.09,1.15,4.23,4.23,0,0,0-1.07,2.55l.07,8.82c0,1.19.17,3.09.67,3.66a5.26,5.26,0,0,0,3,1.69l-.17,1.69A6.8,6.8,0,0,1,36,56.07c-1.11-1.27-1.1-4.21-1.09-4.79l-.07-8.8a5.88,5.88,0,0,1,1.51-3.7,4.57,4.57,0,0,1,3.39-1.71l25.65-.14.14.69a4.94,4.94,0,0,1-3.28,5.66,14.87,14.87,0,0,1-4.44.59l-6.19-.07Z"/><rect class="cls-3" x="39.34" y="45.87" width="1.7" height="25.94"/><rect class="cls-3" x="44.84" y="55.99" width="1.7" height="15.82"/><path class="cls-3" d="M48.26,26.07A4.57,4.57,0,0,1,50,29.65a4.63,4.63,0,1,1-7.51-3.58H40.17A6.32,6.32,0,1,0,51.7,29.65a6.23,6.23,0,0,0-1.12-3.58Z"/><path class="cls-3" d="M51.85,24a6.45,6.45,0,0,0-5.2-4.8l.13-.63-2.36.14-.65.6A6.48,6.48,0,0,0,39,23.62a10.4,10.4,0,0,0-.53,2.67v.79H50.56v0l1.89,0,0-2.36ZM40.31,25.44a5.12,5.12,0,0,1,10.2,0Z"/><path class="cls-4" d="M40.21,71.66V58.33L37,55.11c-1.2-1.2,0-10.84,0-10.84v-3.7a2,2,0,0,1,2-2H64.34s2.21,1.77,0,2.69a18.46,18.46,0,0,1-6.48.94H50.21V71.22H39.34"/></g></g></svg>