<svg xmlns="http://www.w3.org/2000/svg" viewBox="0 0 68.45 68.64"><defs><style>.cls-1{fill:#fff;}.cls-2{fill:#b7626c;}.cls-3,.cls-4{fill:#5597b1;}.cls-4{opacity:0.3;}</style></defs><title>Ресурс 3</title><g id="Слой_2" data-name="Слой 2"><g id="Слой_1-2" data-name="Слой 1"><path class="cls-1" d="M67.08,34.32A32.85,32.85,0,1,1,34.23,1.47,32.85,32.85,0,0,1,67.08,34.32Z"/><path class="cls-2" d="M34.23,67.57A33.26,33.26,0,1,1,67.48,34.32,33.29,33.29,0,0,1,34.23,67.57Zm0-65.7A32.45,32.45,0,1,0,66.68,34.32,32.48,32.48,0,0,0,34.23,1.87Z"/><path class="cls-2" d="M68.45,34.49A35,35,0,0,0,35.25.05C34.64,0,34,0,33.43,0,15.35,0,.36,15.27,0,34.05-.33,52,14.56,67.53,33.2,68.58c.61,0,1.22.06,1.82.06h0c18,0,33-15.22,33.42-33.93v-.22Zm-2.74-.43a32.08,32.08,0,0,1-30.5,31.65c-.57,0-1.14.05-1.7.05h0c-16.64,0-30.44-14-30.76-31.19C2.44,18.09,16.12,3.9,33.25,2.93c.56,0,1.13-.05,1.69-.05C51.58,2.88,65.38,16.86,65.71,34.06Z"/><path class="cls-3" d="M54.28,29.27l-19.7,1.59-.69-8.48a.79.79,0,0,0-.87-.73L28.21,22a.82.82,0,0,0-.74.87L28,29.71,24.15,30a.8.8,0,0,0-.55.28.81.81,0,0,0-.18.6l1,10.4a.8.8,0,0,0,.86.73l9.35-.76a.79.79,0,0,0,.74-.86l-.23-2.81L54.82,36a.81.81,0,0,0,.74-.87L55.15,30A.81.81,0,0,0,54.28,29.27ZM33.68,39.74l-7.76.63-.82-8.8L29,31.25a.8.8,0,0,0,.74-.86l-.55-6.81,3.2-.26L33,31.8l.41,5.14Zm20.21-5.27L35,36l-.28-3.54L53.6,30.94Z"/><line class="cls-2" x1="20.24" y1="38.37" x2="11.8" y2="29.93"/><path class="cls-2" d="M20.24,39.18a.81.81,0,0,1-.57-.24L11.23,30.5a.81.81,0,0,1,1.14-1.14l8.44,8.44a.81.81,0,0,1-.57,1.38Z"/><line class="cls-2" x1="19.39" y1="40.26" x2="10.53" y2="40.26"/><path class="cls-2" d="M19.39,41.06H10.53a.81.81,0,0,1,0-1.61h8.86a.81.81,0,0,1,0,1.61Z"/><line class="cls-2" x1="21.75" y1="36.92" x2="20.67" y2="25.97"/><path class="cls-2" d="M21.83,37.72A.8.8,0,0,1,21,37L19.87,26a.81.81,0,0,1,.72-.88.8.8,0,0,1,.88.73l1.08,11A.8.8,0,0,1,21.83,37.72Z"/><path class="cls-4" d="M53.83,42.22v-.07H14.34v.08a2.17,2.17,0,0,0,0,4.31v.09H53.83v-.08a2.17,2.17,0,0,0,0-4.33Z"/></g></g></svg>