<svg xmlns="http://www.w3.org/2000/svg" viewBox="0 0 51.71 77.9"><defs><style>.cls-1,.cls-3{fill:#008dad;}.cls-2{fill:#c7515f;}.cls-3{opacity:0.3;}.cls-4{fill:#fff;}</style></defs><title>Ресурс 10</title><g id="Слой_2" data-name="Слой 2"><g id="Слой_1-2" data-name="Слой 1"><rect class="cls-1" x="18.3" y="16.53" width="23.88" height="1.9"/><rect class="cls-1" x="9.59" y="16.53" width="2.98" height="1.9"/><rect class="cls-1" x="18.3" y="25.23" width="23.88" height="1.9"/><rect class="cls-1" x="9.59" y="25.23" width="2.98" height="1.9"/><rect class="cls-1" x="18.05" y="33.44" width="23.88" height="1.9"/><rect class="cls-1" x="9.35" y="33.44" width="2.98" height="1.9"/><rect class="cls-1" x="18.05" y="41.89" width="23.88" height="1.9"/><rect class="cls-1" x="9.35" y="41.89" width="2.98" height="1.9"/><rect class="cls-1" x="28.74" y="60.8" width="13.68" height="1.9"/><path class="cls-2" d="M21.77,69.87a2.21,2.21,0,0,1-1.87-1L9.22,52.24a1.78,1.78,0,0,1,.8-2.59,2.29,2.29,0,0,1,2.93.72L21.5,63.7,37.78,30.16a2.27,2.27,0,0,1,2.82-1,1.82,1.82,0,0,1,1.13,2.5l-18,37.05a2.14,2.14,0,0,1-1.86,1.15Z"/><polygon class="cls-1" points="43.14 2.32 43.14 4.78 49.24 4.78 49.24 75.44 2.46 75.44 2.46 4.78 8.57 4.78 8.57 2.32 0 2.32 0 77.9 51.71 77.9 51.71 2.32 43.14 2.32"/><path class="cls-3" d="M2,4.25l47.57-.13v15.2S27,14.47,15.87,34.4s-3.67,41-3.67,41H1.58Z"/><rect class="cls-4" x="10.82" y="0.7" width="30.32" height="5.68"/><path class="cls-1" d="M41.84,7.32h-32V0h32ZM11.27,5.9H40.44V1.42H11.27Z"/></g></g></svg>