<svg xmlns="http://www.w3.org/2000/svg" viewBox="0 0 91.98 92.24"><defs><style>.cls-1{fill:#fff;}.cls-2{fill:#b7626c;}.cls-3,.cls-4{fill:#5597b1;}.cls-3{opacity:0.3;}</style></defs><title>Ресурс 7</title><g id="Слой_2" data-name="Слой 2"><g id="Слой_1-2" data-name="Слой 1"><path class="cls-1" d="M87.84,45.9a43.09,43.09,0,0,1-41,42.54c-.76,0-1.52.07-2.28.07h0c-22.36,0-40.91-18.8-41.34-41.92-.42-22.14,18-41.22,41-42.52C45,4,45.75,4,46.5,4,68.86,4,87.4,22.8,87.84,45.9Z"/><path class="cls-2" d="M92,46.35A47,47,0,0,0,47.37.07C46.55,0,45.73,0,44.92,0,20.63,0,.48,20.53,0,45.76c-.46,24.17,19.55,45,44.6,46.41.82,0,1.64.07,2.45.07h0c24.2,0,44.35-20.46,44.91-45.6v-.29Zm-3.68-.58a43.1,43.1,0,0,1-41,42.53c-.76,0-1.52.07-2.28.07h0c-22.36,0-40.9-18.8-41.34-41.91-.42-22.15,18-41.23,41-42.53q1.15-.06,2.28-.06C69.31,3.87,87.86,22.66,88.3,45.77Z"/><rect class="cls-3" x="32" y="31.21" width="29.29" height="9.14"/><path class="cls-4" d="M36.41,49.4a2.68,2.68,0,0,1-2.69,2.68h0A2.68,2.68,0,0,1,31,49.4V47.17a2.68,2.68,0,0,1,2.68-2.68h0a2.68,2.68,0,0,1,2.69,2.68Z"/><path class="cls-4" d="M45.05,49.4a2.69,2.69,0,0,1-2.69,2.68h0a2.68,2.68,0,0,1-2.68-2.68V47.17a2.68,2.68,0,0,1,2.68-2.68h0a2.69,2.69,0,0,1,2.69,2.68Z"/><path class="cls-4" d="M53.23,49.4a2.68,2.68,0,0,1-2.69,2.68h0a2.68,2.68,0,0,1-2.68-2.68V47.17a2.68,2.68,0,0,1,2.68-2.68h0a2.68,2.68,0,0,1,2.69,2.68Z"/><path class="cls-2" d="M61.28,49.14a2.69,2.69,0,0,1-2.69,2.68h0a2.68,2.68,0,0,1-2.68-2.68V46.91a2.68,2.68,0,0,1,2.68-2.68h0a2.69,2.69,0,0,1,2.69,2.68Z"/><path class="cls-4" d="M36.58,66.9a2.68,2.68,0,0,1-2.69,2.68h0a2.68,2.68,0,0,1-2.68-2.68V64.67A2.68,2.68,0,0,1,33.89,62h0a2.68,2.68,0,0,1,2.69,2.68Z"/><path class="cls-4" d="M45.22,66.9a2.68,2.68,0,0,1-2.69,2.68h0a2.68,2.68,0,0,1-2.68-2.68V64.67A2.68,2.68,0,0,1,42.53,62h0a2.68,2.68,0,0,1,2.69,2.68Z"/><path class="cls-4" d="M53.4,66.9a2.68,2.68,0,0,1-2.69,2.68h0A2.68,2.68,0,0,1,48,66.9V64.67A2.68,2.68,0,0,1,50.71,62h0a2.68,2.68,0,0,1,2.69,2.68Z"/><path class="cls-4" d="M59.87,21.87v0H31.78v.09A2.19,2.19,0,0,0,30.14,24v1.8a2.17,2.17,0,0,0,1.64,2.08V28H59.87v0a2.18,2.18,0,0,0,2-2.14V24A2.18,2.18,0,0,0,59.87,21.87Z"/><path class="cls-4" d="M62.68,74.61H28.91a1,1,0,0,1-.74-.31,3.75,3.75,0,0,1-2.28-3.43V21.24a3.75,3.75,0,0,1,2.28-3.43,1,1,0,0,1,.74-.31H62.68a1,1,0,0,1,.42.09,3.74,3.74,0,0,1,3,3.65V70.87a3.75,3.75,0,0,1-3,3.66A1.1,1.1,0,0,1,62.68,74.61ZM29.37,72.54H62.42l.13,0A1.67,1.67,0,0,0,64,70.87V21.24a1.66,1.66,0,0,0-1.47-1.64l-.13,0h-33l-.18.07A1.67,1.67,0,0,0,28,21.24V70.87a1.67,1.67,0,0,0,1.23,1.6Z"/><path class="cls-4" d="M61.15,41.08H31.83a.52.52,0,0,1-.52-.52V30.74a.52.52,0,0,1,.52-.52H61.15a.52.52,0,0,1,.51.52v9.82A.51.51,0,0,1,61.15,41.08ZM32.34,40H60.63V31.26H32.34Z"/><path class="cls-4" d="M56.63,39.89a2.46,2.46,0,0,1-2.46-2.46v-3.3a2.46,2.46,0,0,1,4.92,0v3.3A2.46,2.46,0,0,1,56.63,39.89Zm0-7.18a1.42,1.42,0,0,0-1.43,1.42v3.3a1.43,1.43,0,0,0,2.86,0v-3.3A1.42,1.42,0,0,0,56.63,32.71Z"/><path class="cls-4" d="M36.41,58.2a2.68,2.68,0,0,1-2.69,2.69h0A2.68,2.68,0,0,1,31,58.2V56a2.69,2.69,0,0,1,2.68-2.69h0A2.69,2.69,0,0,1,36.41,56Z"/><path class="cls-4" d="M45.05,58.2a2.69,2.69,0,0,1-2.69,2.69h0a2.68,2.68,0,0,1-2.68-2.69V56a2.69,2.69,0,0,1,2.68-2.69h0A2.7,2.7,0,0,1,45.05,56Z"/><path class="cls-4" d="M53.23,58.2a2.68,2.68,0,0,1-2.69,2.69h0a2.68,2.68,0,0,1-2.68-2.69V56a2.69,2.69,0,0,1,2.68-2.69h0A2.69,2.69,0,0,1,53.23,56Z"/><path class="cls-4" d="M61.63,55.27a2.21,2.21,0,0,0-2.15-2H57.67a2.19,2.19,0,0,0-2.14,2h0V67.86h0a2.19,2.19,0,0,0,2.14,2h1.81a2.21,2.21,0,0,0,2.15-2h0V55.27Z"/></g></g></svg>