<svg xmlns="http://www.w3.org/2000/svg" viewBox="0 0 91.98 92.24"><defs><style>.cls-1{fill:#fff;}.cls-2{fill:#b7626c;}.cls-3,.cls-4{fill:#5597b1;}.cls-3{opacity:0.3;}.cls-5{fill:#5da6ce;}</style></defs><title>Ресурс 8</title><g id="Слой_2" data-name="Слой 2"><g id="Слой_1-2" data-name="Слой 1"><path class="cls-1" d="M88.3,45.9a43.1,43.1,0,0,1-41,42.54c-.76,0-1.52.07-2.28.07h0c-22.36,0-40.9-18.8-41.34-41.92-.42-22.14,18-41.22,41-42.52C45.44,4,46.2,4,47,4,69.31,4,87.86,22.8,88.3,45.9Z"/><path class="cls-2" d="M92,46.35A47,47,0,0,0,47.37.07C46.55,0,45.73,0,44.92,0,20.63,0,.48,20.53,0,45.76c-.46,24.17,19.55,45,44.6,46.41.82,0,1.64.07,2.45.07h0c24.2,0,44.35-20.46,44.91-45.6v-.29Zm-3.68-.58a43.1,43.1,0,0,1-41,42.53c-.76,0-1.52.07-2.28.07h0c-22.36,0-40.9-18.8-41.34-41.91-.41-22.15,18-41.23,41-42.53q1.15-.06,2.28-.06C69.31,3.87,87.86,22.66,88.3,45.77Z"/><rect class="cls-3" x="52.26" y="33.02" width="6.9" height="20.69"/><rect class="cls-2" x="32.59" y="38.57" width="5.21" height="15.86"/><polygon class="cls-4" points="67.68 54.57 66.77 54.57 66.77 30.65 25.21 30.65 25.21 54.14 24.3 54.14 24.3 29.74 67.68 29.74 67.68 54.57"/><polygon class="cls-4" points="38.43 54.45 37.52 54.45 37.52 38.96 33.07 38.96 33.07 54.26 32.16 54.26 32.16 38.05 38.43 38.05 38.43 54.45"/><rect class="cls-4" x="34.93" y="38.69" width="0.91" height="15.57"/><path class="cls-4" d="M38,39a.45.45,0,0,1-.42-.28l-2.3-5.45-2.34,5.1a.46.46,0,0,1-.83-.38l2.77-6a.46.46,0,0,1,.42-.26.43.43,0,0,1,.41.28l2.71,6.4a.46.46,0,0,1-.24.6A.57.57,0,0,1,38,39Z"/><path class="cls-4" d="M47.64,54.9a.45.45,0,0,1-.46-.45V49.92h-4V54.2a.47.47,0,0,1-.46.46.46.46,0,0,1-.45-.46V49.46a.45.45,0,0,1,.45-.45h4.93a.45.45,0,0,1,.45.45v5A.45.45,0,0,1,47.64,54.9Z"/><path class="cls-5" d="M45.11,42.59a.45.45,0,0,1-.45-.45v-8.8a.46.46,0,1,1,.91,0v8.8A.45.45,0,0,1,45.11,42.59Z"/><path class="cls-4" d="M47.27,52.32H43a.46.46,0,1,1,0-.91h4.31a.46.46,0,0,1,0,.91Z"/><path class="cls-2" d="M59.19,54.66a.46.46,0,0,1-.46-.46V33.75H52.67V54.2a.46.46,0,0,1-.45.46.47.47,0,0,1-.46-.46V33.3a.47.47,0,0,1,.46-.46h7a.46.46,0,0,1,.45.46V54.2A.46.46,0,0,1,59.19,54.66Z"/><path class="cls-2" d="M58.61,38.89H55A.46.46,0,1,1,55,38h3.62a.46.46,0,0,1,0,.91Z"/><path class="cls-2" d="M58.61,44.52H55a.47.47,0,0,1-.46-.46.46.46,0,0,1,.46-.45h3.62a.45.45,0,0,1,.45.45A.46.46,0,0,1,58.61,44.52Z"/><path class="cls-2" d="M58.61,50.15H55a.47.47,0,0,1-.46-.46.46.46,0,0,1,.46-.45h3.62a.45.45,0,0,1,.45.45A.46.46,0,0,1,58.61,50.15Z"/><path class="cls-4" d="M47.08,49.55H42.77a.45.45,0,0,1-.43-.33c-.79-2.69-4.65-4-4.69-4a.51.51,0,0,1-.29-.27.47.47,0,0,1,0-.4l7.26-12.31a.44.44,0,0,1,.39-.22h0a.48.48,0,0,1,.4.22l7.13,12.25a.45.45,0,0,1,0,.46.47.47,0,0,1-.4.23c-3,0-4.67,4-4.69,4.09A.45.45,0,0,1,47.08,49.55Zm-4-.91h3.69c.44-.93,2-3.83,4.65-4.31L45.05,33.38,38.46,44.55C39.59,45,42.23,46.32,43.1,48.64Z"/><path class="cls-3" d="M42.81,48.86a7.61,7.61,0,0,0-4.21-3.71l-.83-.27,7.34-12.42,7,11.95S47.78,46.48,47.25,49Z"/><path class="cls-4" d="M72.35,28.26a3,3,0,0,0-2.7-3.16H22.2a2.54,2.54,0,0,0-2.05.83,2.66,2.66,0,0,0-.53,1.93l.07,36.61,19.15,0-1.14,6.4H35.59v3.29H33.51v1.18h25V74.14H56.39V70.85H54.28l-1.14-6.42,19.21,0V63.5C72.35,62.15,72.41,30.41,72.35,28.26ZM39.62,70.48l1-5.56H51.37l1,5.56L46,70.16h0Zm30.91-7.89-49,0,0-7.1H70.54C70.53,58.72,70.53,61.29,70.53,62.59Zm0-8.87H21.49l0-25.93v-.14a.83.83,0,0,1,.11-.55.94.94,0,0,1,.65-.18H69.57c.21,0,.92.2,1,1.39C70.56,29.68,70.55,43.79,70.54,53.72Z"/><rect class="cls-3" x="20.3" y="54.78" width="50.9" height="8.94"/></g></g></svg>