<svg xmlns="http://www.w3.org/2000/svg" viewBox="0 0 134.18 73.97"><defs><style>.cls-1{fill:#fff;}.cls-2,.cls-7{fill:#c7515f;}.cls-3,.cls-4{fill:#008dad;}.cls-3,.cls-5{opacity:0.3;}.cls-6{fill:none;}.cls-6,.cls-7{stroke:#c7515f;stroke-miterlimit:10;}</style></defs><title>Ресурс 4</title><g id="Слой_2" data-name="Слой 2"><g id="Слой_1-2" data-name="Слой 1"><path class="cls-1" d="M72.14,37A35.29,35.29,0,1,1,36.85,1.7,35.28,35.28,0,0,1,72.14,37Z"/><path class="cls-2" d="M70.58,36.57a34.56,34.56,0,0,1-32.78,34C18.84,71.65,3.47,55.89,3.13,37.4c-.35-18.27,15.05-33,32.78-34,19-1.07,34.32,14.69,34.67,33.18,0,1.77,3.16,3.11,3.12.83A37.93,37.93,0,0,0,37.8.06C17.08-1.12.39,16.48,0,36.57s16.46,36.25,35.9,37.35C56.63,75.09,73.32,57.5,73.7,37.4,73.73,35.62,70.62,34.29,70.58,36.57Z"/><polygon class="cls-3" points="8.75 45.81 37.42 25.78 65.11 45.42 37.03 65.45 8.75 45.81"/><path class="cls-2" d="M31.91,28.43V13.17a1,1,0,1,0-2,0V28.43a3.64,3.64,0,1,0,2,0Z"/><path class="cls-2" d="M41.33,15.32s-1.71,2.28-.46,3.87,2.16,3.86,1.59,5.45-3.41,3.86-.79,6.82c0,0-.34-2.62.9-3.3a5.59,5.59,0,0,0,2.85-5.22c-.35-2.5-1.83-3.16-3.3-4.78A3.43,3.43,0,0,1,41.33,15.32Z"/><path class="cls-2" d="M45.62,10.78s-1.7,3.51-.45,6,2.16,6,1.59,8.45-3.41,6-.8,10.55c0,0-.34-4.05.91-5.1a10.22,10.22,0,0,0,2.84-8.09c-.34-3.87-1.82-4.89-3.29-7.39A7.68,7.68,0,0,1,45.62,10.78Z"/><path class="cls-2" d="M51,15.44s-1.7,2.27-.45,3.86,2.16,3.86,1.59,5.45-3.41,3.87-.8,6.82c0,0-.34-2.61.91-3.29a5.6,5.6,0,0,0,2.84-5.23c-.34-2.5-1.83-3.16-3.29-4.77A3.45,3.45,0,0,1,51,15.44Z"/><path class="cls-4" d="M30.91,38.9a7,7,0,0,1-3.73-12.83V12.35A3.56,3.56,0,0,1,30.91,9a3.57,3.57,0,0,1,3.73,3.37V26.07A7,7,0,0,1,30.91,38.9Zm0-28.35a2,2,0,0,0-2.16,1.8V27l-.41.22a5.39,5.39,0,1,0,5.13,0l-.4-.23V12.35A2,2,0,0,0,30.91,10.55Z"/><path class="cls-4" d="M37.23,62.75,7.51,41.66l6.66-4.6a.79.79,0,0,1,.89,1.3l-4.81,3.32,27,19.15L64.29,42,60,38.48a.79.79,0,1,1,1-1.22L66.9,42Z"/><g class="cls-5"><path class="cls-4" d="M12.22,42.62h-2a.79.79,0,0,1-.78-.79.78.78,0,0,1,.78-.78h2a.79.79,0,0,1,0,1.57Z"/><path class="cls-4" d="M59.08,42.69H55.17a.79.79,0,1,1,0-1.57h3.9a.79.79,0,1,1,0,1.57Zm-7.81,0H47.36a.79.79,0,1,1,0-1.57h3.9a.79.79,0,1,1,0,1.57Zm-7.81,0H39.55a.79.79,0,0,1,0-1.57h3.91a.79.79,0,0,1,0,1.58Zm-7.81,0H31.74a.79.79,0,0,1-.78-.79.78.78,0,0,1,.78-.78h3.91a.79.79,0,0,1,0,1.57Zm-7.81,0H23.93a.79.79,0,0,1-.78-.79.78.78,0,0,1,.78-.78h3.91a.79.79,0,0,1,0,1.57Zm-7.81,0H16.12a.77.77,0,0,1-.78-.78.78.78,0,0,1,.78-.79H20a.79.79,0,0,1,0,1.57Z"/><path class="cls-4" d="M65,42.7H63a.79.79,0,1,1,0-1.57h2a.78.78,0,0,1,.79.78A.8.8,0,0,1,65,42.7Z"/></g><line class="cls-6" x1="73.14" y1="33.28" x2="134.18" y2="33.28"/><path class="cls-7" d="M77.18,32.47a5.34,5.34,0,1,1-5.34-5.33A5.34,5.34,0,0,1,77.18,32.47Z"/></g></g></svg>