<svg xmlns="http://www.w3.org/2000/svg" viewBox="0 0 34.72 44.1"><defs><style>.cls-1,.cls-2{fill:#fff;}.cls-1{opacity:0.3;}</style></defs><title>Ресурс 1</title><g id="Слой_2" data-name="Слой 2"><g id="Слой_1-2" data-name="Слой 1"><rect class="cls-1" x="17.08" y="10.09" width="15.94" height="11.36"/><path class="cls-2" d="M34.7,10.12a1,1,0,0,0-.05-.3,1.26,1.26,0,0,0-1.13-1.4c-1.63-.26-14.09.42-15.77-2.36l-.35-.42V5.58l0,0,0,0v.06L17,6.06C15.33,8.84,2.87,8.16,1.24,8.42A1.23,1.23,0,0,0,.11,9.67a1.34,1.34,0,0,0-.09.45c0,.09-.16,9.11.44,13.12,1.85,12.47,9,16.45,13.34,18.83a15.11,15.11,0,0,1,2.66,1.69,1.27,1.27,0,0,0,.88.34,1.41,1.41,0,0,0,.87-.3l.1-.09a14.62,14.62,0,0,1,2.62-1.64c4.29-2.38,11.48-6.36,13.33-18.83C34.86,19.23,34.7,10.21,34.7,10.12ZM2.62,11.45h14v9H2.81C2.62,17.47,2.61,13.58,2.62,11.45ZM15.07,39.78c-4.13-2.29-10.36-5.73-12-16.92,0-.2-.06-.42-.09-.65H16.62V40.67C16.14,40.38,15.64,40.09,15.07,39.78Zm16.6-16.92c-1.66,11.19-7.89,14.63-12,16.92l-1.24.69V22.21H31.76C31.73,22.44,31.7,22.66,31.67,22.86Zm.24-2.4H18.42v-9H32.09C32.11,13.58,32.1,17.47,31.91,20.46Z"/><path class="cls-1" d="M2.4,21.46H17.08l.38,20.28s.82,1.34-1.09.13S8.43,38.13,5.74,34,1.79,21.9,1.79,21.9l.44-.39"/><path class="cls-2" d="M17.58,31.53A1.88,1.88,0,0,1,16,30.79L7.16,17.93a1.33,1.33,0,0,1,.67-2,2,2,0,0,1,2.43.55l7.1,10.29L30.89.89A1.94,1.94,0,0,1,33.23.12a1.4,1.4,0,0,1,.94,1.93l-15,28.6a1.8,1.8,0,0,1-1.54.88Z"/></g></g></svg>