<svg xmlns="http://www.w3.org/2000/svg" viewBox="0 0 55.25 105.23"><g data-name="Layer 2"><g data-name="Layer 1" fill="#d0495a"><path d="M7.93 68.74h-.15A7.93 7.93 0 0 1 0 60.67v-1A5.87 5.87 0 0 1 2.49 55a6 6 0 0 1-.65-.58A5.84 5.84 0 0 1 .2 50.2v-.51A8 8 0 0 1 14 44.27a8 8 0 0 1 2.24 5.27l23.56.25a7.72 7.72 0 0 1 15.44.4 6.09 6.09 0 0 1-2.55 4.92A6.07 6.07 0 0 1 55.06 60a8.17 8.17 0 0 1-8.28 8 7.11 7.11 0 0 1-6.95-6.49l-24-.45a7.92 7.92 0 0 1-7.91 7.65zm-2-12.56a3.57 3.57 0 0 0-3.57 3.5v1a5.62 5.62 0 0 0 5.51 5.72 6 6 0 0 0 4-1.57 5.58 5.58 0 0 0 1.72-3.94v-1a1.11 1.11 0 0 1 1.17-1.13l26.24.49a1.15 1.15 0 0 1 1.13 1.18v.41a4.8 4.8 0 0 0 4.71 4.88A5.86 5.86 0 0 0 52.76 60a3.78 3.78 0 0 0-3.7-3.84v-2.31h.08a3.61 3.61 0 0 0 3.75-3.5 5.42 5.42 0 0 0-9.16-4.2A5.38 5.38 0 0 0 42.11 50v1a1.15 1.15 0 0 1-1.15 1.13l-25.85-.27a1.15 1.15 0 0 1-1.14-1.17v-.72a5.72 5.72 0 0 0-5.61-5.83 5.89 5.89 0 0 0-4.08 1.6 5.67 5.67 0 0 0-1.75 4v.51A3.56 3.56 0 0 0 6 53.88 1.15 1.15 0 0 1 7.13 55 1.13 1.13 0 0 1 6 56.18zm47.78 49.05h-.08c-6.68-.47-14-6.64-14.14-15.8-.32-9.55 8-16 14.14-16.46a1.13 1.13 0 0 1 .87.31 1.16 1.16 0 0 1 .37.84v30a1.16 1.16 0 0 1-1.15 1.15zm-1.15-29.77c-4.93 1.09-11 6.48-10.76 13.92a14 14 0 0 0 10.76 13.38z"/><path d="M23 104.94A23.5 23.5 0 0 1 1 89.5a1.15 1.15 0 0 1 0-.79 23.5 23.5 0 0 1 22-15.45c7.52 0 18.31 6.12 18.79 16.09-.16 9.55-11.23 15.59-18.79 15.59zM3.29 89.11A21.19 21.19 0 0 0 23 102.64c6.47 0 16.35-5.28 16.49-13.25C39.08 81 29.45 75.57 23 75.57A21.19 21.19 0 0 0 3.29 89.11z"/><path d="M18.22 104.16a1.15 1.15 0 0 1-1.16-1.16V75.09a1.15 1.15 0 0 1 2.31 0V103a1.15 1.15 0 0 1-1.15 1.16z"/><circle cx="11.85" cy="85.51" r="1.74"/><path d="M9.29 34.46a1.15 1.15 0 0 1-.86-1.92l2.31-2.61a10.21 10.21 0 0 0 2.38-4.87l1.6-8.5A13.38 13.38 0 0 1 27.9 5.64h.24a13.43 13.43 0 0 1 13.17 12.83l.26 6a5.07 5.07 0 0 0 2 3.79l3.88 3a1.15 1.15 0 0 1-.68 2.06L9.32 34.46zM27.9 7.94A11.08 11.08 0 0 0 17 17l-1.6 8.5a12.51 12.51 0 0 1-2.92 6l-.55.62 31.55-.91-1.38-1.1a7.39 7.39 0 0 1-2.84-5.51l-.26-6A11.12 11.12 0 0 0 28.09 7.95z"/><path d="M27.72 37.78A4.75 4.75 0 0 1 23 32.86a1.19 1.19 0 0 1 1.19-1.11 1.15 1.15 0 0 1 1.11 1.19 2.45 2.45 0 1 0 4.9-.05 1.15 1.15 0 0 1 1.08-1.22 1.14 1.14 0 0 1 1.22 1.08 4.75 4.75 0 0 1-4.76 5z"/><path d="M40.7 26.25l-15.86 6.17 20.93-.69-3.78-2.93-1.29-2.55zM27.82 7.93A1.15 1.15 0 0 1 27 7.6 8.74 8.74 0 0 1 24.82 4a3.72 3.72 0 0 1 .35-2.87A2.4 2.4 0 0 1 26.82 0 2.58 2.58 0 0 1 29 .57a3.78 3.78 0 0 1 1.16 2.79 7.29 7.29 0 0 1-1.44 4.14 1.15 1.15 0 0 1-.83.43zm-.47-5.63h-.14a1.25 1.25 0 0 0-.15 1.12 4.35 4.35 0 0 0 .55 1.22 3.89 3.89 0 0 0 .21-1.25 1.57 1.57 0 0 0-.32-1.06.21.21 0 0 0-.15-.03zm11.08 80.47l-20.21 12.4.85 8.66s14.44 1 19-6.79a13.91 13.91 0 0 0 .36-14.27zm4.72-17.09l10-8s1.87 7.13-4.25 8.83-5.75-.83-5.75-.83z"/></g></g></svg>