<svg xmlns="http://www.w3.org/2000/svg" viewBox="0 0 47.68 22.46"><g data-name="Layer 2"><g data-name="Layer 1" fill="#d0495a"><path d="M29.21 22.46c-11.22 0-18.27-8.24-18.37-8.37q-.93-1.17-1.64-2.26a38.14 38.14 0 0 1-8.14.39A1.16 1.16 0 0 1 0 11a1.14 1.14 0 0 1 1.24-1.06A34.23 34.23 0 0 0 8 9.7 8.61 8.61 0 0 1 7.1 5 6.11 6.11 0 0 1 9.61.85a4.57 4.57 0 0 1 4.68-.38 5.61 5.61 0 0 1 3.24 4.47 5.54 5.54 0 0 1-2.68 5 10.36 10.36 0 0 1-3.21 1.35c.3.43.64.87 1 1.33.13.16 13.51 15.81 32.76 1.36a1.15 1.15 0 1 1 1.38 1.85c-6.53 4.94-12.48 6.63-17.57 6.63zm-17-20.16a2.11 2.11 0 0 0-1.21.4 3.82 3.82 0 0 0-1.61 2.61 7 7 0 0 0 1 4 9.46 9.46 0 0 0 3.14-1.21 3.31 3.31 0 0 0 1.71-2.95 3.32 3.32 0 0 0-1.92-2.59 2.68 2.68 0 0 0-1.1-.25z"/><path d="M46.36 19h-.05a1.15 1.15 0 0 1-1.1-1.2l.11-2.34-1.93.05a1.14 1.14 0 0 1-1.18-1.12 1.16 1.16 0 0 1 1.12-1.18l3.16-.08a1.15 1.15 0 0 1 1.18 1.21l-.17 3.58A1.15 1.15 0 0 1 46.36 19z"/></g></g></svg>