<svg xmlns="http://www.w3.org/2000/svg" viewBox="0 0 51.84 27.68"><g data-name="Layer 2"><path d="M2.62 27.68A12.73 12.73 0 0 1 1 27.57a1.15 1.15 0 0 1 .3-2.29c6.53.86 9.37-4.76 12.38-10.7 2-3.88 4-7.89 7.19-10.22 10.63-8.7 19.73-3.08 28 5.49a1.15 1.15 0 0 1 2.15.1 17.12 17.12 0 0 1 .68 2.65l.14.7v.21a1.16 1.16 0 0 1-.16.6v.07a1.16 1.16 0 0 1-.46.38l-.19.07a.8.8 0 0 1-.29 0 4.43 4.43 0 0 1-1.9-.47 7.55 7.55 0 0 1-1.43-.54 1.15 1.15 0 0 1 0-2.07C38.88 2.79 31.19-1.11 22.28 6.18c-2.78 2-4.69 5.81-6.54 9.44-2.88 5.68-6.12 12.06-13.12 12.06z" fill="#d0495a" data-name="Layer 1"/></g></svg>