<svg xmlns="http://www.w3.org/2000/svg" viewBox="0 0 83.69 95.76"><g data-name="Layer 2"><g data-name="Layer 1"><path d="M78.53 27.51H34.66a5.17 5.17 0 0 1-5.17-5.17v-6.47a5.17 5.17 0 0 1 5.17-5.17h43.87a5.17 5.17 0 0 1 5.17 5.17v6.46a5.17 5.17 0 0 1-5.17 5.18zM34.66 13a2.86 2.86 0 0 0-2.86 2.86v6.46a2.86 2.86 0 0 0 2.86 2.86h43.87a2.86 2.86 0 0 0 2.86-2.86v-6.45A2.86 2.86 0 0 0 78.53 13z" fill="#d0495a"/><path d="M72.37 95.69H40.82a6.15 6.15 0 0 1-6.15-6.15V26.75a1.55 1.55 0 0 1 1.55-1.55H77a1.55 1.55 0 0 1 1.55 1.55v62.8a6.15 6.15 0 0 1-6.18 6.14zM37 27.51v62a3.84 3.84 0 0 0 3.84 3.84h31.53a3.84 3.84 0 0 0 3.84-3.84v-62z" fill="#d0495a"/><path d="M55.88 11.89h12.41a.17.17 0 0 1 .17.17v82.15H55.71V12.06a.17.17 0 0 1 .17-.17z" fill="#d0495a"/><path d="M69.13 13.06h-3.6A4.58 4.58 0 0 1 61 8.25V7.5A7.9 7.9 0 0 1 68.9 0h.24a6.53 6.53 0 1 1 0 13.06zM68.9 2.31a5.59 5.59 0 0 0-5.59 5.31v.75a2.27 2.27 0 0 0 2.27 2.38h3.6a4.22 4.22 0 1 0 0-8.45z" fill="#d0495a"/><path d="M58 13.06h-3.2A6.53 6.53 0 1 1 54.83 0h.24A7.9 7.9 0 0 1 63 7.5v.36a5 5 0 0 1-5 5.2zM54.83 2.31a4.22 4.22 0 1 0 0 8.45H58A2.64 2.64 0 0 0 60.67 8v-.36a5.59 5.59 0 0 0-5.59-5.31zm-18.65 27.9h40.6a.4.4 0 0 0 .4-.4v-3.06a.4.4 0 0 0-.4-.4H36.07a.4.4 0 0 0-.4.41l.11 3.06a.4.4 0 0 0 .4.39z" fill="#d0495a"/><rect x="1.15" y="47.02" width="62.88" height="14.49" rx="1.57" ry="1.57" fill="#fff"/><path d="M6.33 61.51h52.53v30.94a2.17 2.17 0 0 1-2.17 2.17H8.49a2.17 2.17 0 0 1-2.17-2.17V61.51h.01z" fill="#fff"/><path fill="#fff" d="M26.21 47.04h12.75v47.57H26.21zM40 36.31h-1a6.35 6.35 0 0 0-6.34 6l-.08 1.54a3 3 0 0 0 3 3.18H40a5 5 0 0 0 5-5v-.8a5 5 0 0 0-5-4.92z"/><path d="M20 41.28v.8a5 5 0 0 0 5 5h4a3.4 3.4 0 0 0 3.39-3.57l-.06-1.15a6.35 6.35 0 0 0-6.34-6h-1A5 5 0 0 0 20 41.28zM6.29 65.37h52.38v-3.86H6.16l.13 3.86z" fill="#fff"/><path d="M60.42 62.66H4.77A4.77 4.77 0 0 1 0 57.89v-7.26a4.77 4.77 0 0 1 4.77-4.77h55.65a4.77 4.77 0 0 1 4.77 4.77v7.26a4.77 4.77 0 0 1-4.77 4.77zM4.77 48.17a2.46 2.46 0 0 0-2.46 2.46v7.26a2.47 2.47 0 0 0 2.46 2.46h55.65a2.47 2.47 0 0 0 2.46-2.46v-7.26a2.46 2.46 0 0 0-2.46-2.46z" fill="#d0495a"/><path d="M53.86 95.76H11.32a6.15 6.15 0 0 1-6.15-6.15v-28.1a1.15 1.15 0 0 1 1.15-1.15h52.54A1.15 1.15 0 0 1 60 61.51v28.11a6.15 6.15 0 0 1-6.14 6.14zM7.48 62.66v27a3.84 3.84 0 0 0 3.84 3.84h42.54a3.84 3.84 0 0 0 3.84-3.84v-27z" fill="#d0495a"/><path d="M39 95.76H26.21a1.15 1.15 0 0 1-1.15-1.15V47a1.15 1.15 0 0 1 1.15-1.15H39A1.15 1.15 0 0 1 40.12 47v47.61A1.15 1.15 0 0 1 39 95.76zm-11.6-2.31h10.42V48.19H27.37z" fill="#d0495a"/><path d="M40 48.21h-4.38a4.18 4.18 0 0 1-4.17-4.39l.08-1.54A7.5 7.5 0 0 1 39 35.15h1a6.14 6.14 0 0 1 6.13 6.13v.79A6.14 6.14 0 0 1 40 48.21zm-1-10.75a5.19 5.19 0 0 0-5.19 4.93l-.08 1.54a1.87 1.87 0 0 0 1.87 2H40a3.83 3.83 0 0 0 3.82-3.83v-.79A3.83 3.83 0 0 0 40 37.46z" fill="#d0495a"/><path d="M29 48.21h-4a6.14 6.14 0 0 1-6.13-6.13v-.79A6.14 6.14 0 0 1 25 35.16h1a7.5 7.5 0 0 1 7.49 7.12l.06 1.15A4.56 4.56 0 0 1 29 48.21zm-4-10.75a3.83 3.83 0 0 0-3.83 3.83v.79A3.83 3.83 0 0 0 25 45.91h4a2.25 2.25 0 0 0 2.24-2.36l-.06-1.15a5.19 5.19 0 0 0-5.19-4.93zM6.29 65.37h52.38v-3.86H6.16l.13 3.86z" fill="#d0495a"/></g></g></svg>